<svg width="116" height="24" viewBox="0 0 116 24" fill="none" xmlns="http://www.w3.org/2000/svg">
<g clip-path="url(#clip0_6327_3931)">
<path d="M68.4619 12.9642V0.193359H71.3684V15.6441H66.4436L59.5812 2.87322V15.6441H56.6748V0.193359H61.5996L68.4619 12.9642Z" fill="white"/>
<path d="M112.543 9.33616C113.058 9.18737 113.601 8.97051 114.15 8.62069C115.789 7.56964 115.522 3.3417 114.584 1.90442C113.845 0.769479 112.317 0.310437 111.009 0.193302C108.314 -0.0504654 105.014 0.193302 102.532 0.193302V15.644H105.439V10.441H110.525C111.616 10.441 112.059 11.1391 112.059 11.7817V15.644H115.127V11.3085C115.127 10.4315 114.26 9.33616 112.543 9.33616ZM111.563 7.51265C111.482 7.5823 111.221 7.91788 110.848 7.91788H105.439V2.71487H110.686C111.163 2.71487 111.681 3.20557 111.807 3.35436C112.495 4.16798 112.412 6.77027 111.563 7.51265Z" fill="white"/>
<path d="M99.6061 2.4982C98.3628 -0.0471123 94.6927 -0.150001 92.1657 0.0826859C88.8895 0.383438 87.5445 1.5168 87.0504 4.70477C86.6903 7.03164 86.5951 12.7064 88.3163 14.4681C90.1603 16.3565 97.0743 16.3217 98.9021 14.3858C100.828 12.3486 100.786 4.92004 99.6061 2.4982ZM96.5608 12.5734C95.5565 13.626 91.3454 13.6624 90.5155 12.3217C89.8745 11.2833 89.8583 7.8595 89.9294 6.57101C90.0375 4.62562 90.0036 2.89076 92.3239 2.60267C94.0662 2.38581 96.4769 2.27817 97.0323 4.22357C97.478 5.78589 97.683 11.3973 96.5608 12.5734Z" fill="white"/>
<path d="M85.4164 0.193359V2.79407L76.8586 13.1225H85.5779V15.6441H72.9834V13.0434L81.5412 2.71651H73.3063V0.193359H85.4164Z" fill="white"/>
<path d="M54.7379 0.193359V2.71651H46.9875V6.65794H54.415V8.86451H46.9875V13.1225H54.8994V15.6441H44.0811V0.193359H54.7379Z" fill="white"/>
<path d="M42.4659 0.193359V2.71651H37.7833V15.6441H34.7154V2.71651H30.1943V0.193359H42.4659Z" fill="white"/>
<path d="M26.9651 0.0351562L24.1071 2.84165L6.39574 2.89072C4.65188 2.89072 3.06789 3.679 3.06789 5.4756V21.1638H21.0715C22.662 21.1638 23.8972 19.7439 23.8972 18.4048V14.62L23.894 14.3842H18.8917V11.7043H26.8036V19.0363C26.8036 21.3822 24.6061 24.0035 20.9101 24.0035H0V5.4756C0 2.58996 2.36227 0.0351562 6.53944 0.0351562H26.9651Z" fill="white"/>
<path d="M22.2822 5.39564V7.7605C14.4785 7.455 14.5592 17.5286 22.2822 17.2199V19.5848C18.0598 19.8855 13.5726 17.7185 13.2336 13.2057C12.8138 7.64336 17.091 5.19461 22.2822 5.39405V5.39564Z" fill="white"/>
<path d="M13.8863 5.39648V7.76134H10.4955V19.5856H7.58906V7.76134H4.19824V5.39648H13.8863Z" fill="white"/>
<path d="M36.5512 20.9176C36.7304 20.9176 36.9225 20.9683 37.0775 21.0965C37.2326 21.2247 37.3327 21.4368 37.3327 21.6774L37.3278 21.8705H36.7675V21.6489C36.7675 21.5239 36.7336 21.4764 36.6868 21.4368C36.64 21.3988 36.5641 21.3735 36.4801 21.3735H34.1566C34.0726 21.3735 33.9967 21.3988 33.9499 21.4368C33.9031 21.4748 33.8692 21.5239 33.8692 21.6489V22.9991C33.8692 23.1242 33.9031 23.1732 33.9499 23.2112C33.9967 23.2492 34.0726 23.2745 34.1566 23.2745H36.4801C36.5641 23.2745 36.64 23.2492 36.6868 23.2112C36.7336 23.1732 36.7675 23.1242 36.7675 22.9991V22.7775H37.3278L37.3327 22.9706C37.3327 23.2128 37.2326 23.4233 37.0775 23.5516C36.9225 23.6798 36.732 23.7304 36.5512 23.7304H34.0872C33.9063 23.7304 33.7158 23.6798 33.5608 23.5516C33.4058 23.4233 33.3057 23.2112 33.3057 22.9706V21.6758C33.3057 21.4336 33.4058 21.2231 33.5608 21.0949C33.7158 20.9667 33.9063 20.916 34.0872 20.916H36.5512V20.9176Z" fill="white"/>
<path d="M42.3676 20.9189C42.5468 20.9189 42.7389 20.9696 42.894 21.0978C43.049 21.226 43.1491 21.4381 43.1491 21.6787V22.9736C43.1491 23.2157 43.049 23.4263 42.894 23.5545C42.7389 23.6827 42.5484 23.7333 42.3676 23.7333H39.9036C39.7243 23.7333 39.5322 23.6827 39.3772 23.5545C39.2222 23.4263 39.1221 23.2142 39.1221 22.9736V21.6787C39.1221 21.4366 39.2222 21.226 39.3772 21.0978C39.5322 20.9696 39.7227 20.9189 39.9036 20.9189H42.3676ZM39.7679 21.4397C39.7211 21.4777 39.6872 21.5268 39.6872 21.6518V23.002C39.6872 23.1271 39.7211 23.1762 39.7679 23.2142C39.8148 23.2521 39.8907 23.2775 39.9746 23.2775H42.2981C42.3821 23.2775 42.458 23.2521 42.5048 23.2142C42.5516 23.1762 42.5856 23.1271 42.5856 23.002V21.6518C42.5856 21.5268 42.5516 21.4793 42.5048 21.4397C42.458 21.4001 42.3821 21.3764 42.2981 21.3764H39.9746C39.8907 21.3764 39.8148 21.4017 39.7679 21.4397Z" fill="white"/>
<path d="M45.524 20.9189L48.2448 22.9815V20.9189H48.8099V23.7333H48.3142L45.5935 21.6708V23.7333H45.0283V20.9189H45.524Z" fill="white"/>
<path d="M53.5875 20.9196C53.7683 20.9196 53.9589 20.9702 54.1139 21.0984C54.2576 21.2171 54.3545 21.4071 54.3674 21.6271H53.8022C53.7974 21.5211 53.7651 21.4767 53.7215 21.4403C53.6747 21.4023 53.5988 21.377 53.5148 21.377H51.5029C51.419 21.377 51.3431 21.4023 51.2963 21.4403C51.2494 21.4783 51.2155 21.5274 51.2155 21.6524V21.7949C51.2155 21.9199 51.2494 21.9674 51.2963 22.007C51.3431 22.045 51.419 22.0703 51.5029 22.0703H53.6731C53.8523 22.0703 54.0444 22.121 54.1995 22.2492C54.3545 22.3774 54.4546 22.5895 54.4546 22.8301V22.9726C54.4481 23.2148 54.3512 23.4253 54.1962 23.5535C54.0412 23.6817 53.8507 23.7324 53.6698 23.7324H51.4319C51.2527 23.7324 51.0605 23.6817 50.9055 23.5535C50.7505 23.4253 50.6504 23.2132 50.6504 22.9726V22.8887H51.2155C51.2155 22.9441 51.2155 22.9995 51.2155 22.9995C51.2155 23.1245 51.2494 23.172 51.2963 23.2116C51.3431 23.2496 51.419 23.2749 51.5029 23.2749H53.6004C53.6844 23.2749 53.7603 23.2496 53.8071 23.2116C53.8539 23.1736 53.8878 23.1245 53.8878 22.9995V22.751C53.8797 22.6623 53.8491 22.6228 53.8087 22.5895C53.7619 22.5515 53.686 22.5262 53.602 22.5262H51.4319C51.2527 22.5262 51.0605 22.4755 50.9055 22.3473C50.7553 22.2223 50.6552 22.0197 50.6504 21.7854V21.6778C50.6504 21.4356 50.7505 21.2251 50.9055 21.0968C51.0605 20.9686 51.251 20.918 51.4319 20.918H53.5859L53.5875 20.9196Z" fill="white"/>
<path d="M56.82 20.9189V23.002C56.82 23.1271 56.8539 23.1762 56.9008 23.2142C56.9476 23.2521 57.0235 23.2775 57.1074 23.2775H59.2469C59.3308 23.2775 59.4067 23.2521 59.4536 23.2142C59.5004 23.1762 59.5343 23.1271 59.5343 23.002V20.9189H60.0994V22.9736C60.0994 23.2157 59.9993 23.4263 59.8443 23.5545C59.6893 23.6827 59.4988 23.7333 59.3179 23.7333H57.0364C56.8572 23.7333 56.665 23.6827 56.51 23.5545C56.355 23.4263 56.2549 23.2142 56.2549 22.9736V20.9189H56.82Z" fill="white"/>
<path d="M62.559 20.9189V23.2775H65.3604V23.7349H61.9971V20.9205H62.5606L62.559 20.9189Z" fill="white"/>
<path d="M70.2609 20.9189V21.3764H68.622V23.7333H68.0569V21.3764H66.418V20.9189H70.2625H70.2609Z" fill="white"/>
<path d="M72.5329 20.9189V23.7333H71.9678V20.9189H72.5329Z" fill="white"/>
<path d="M74.9479 20.9189L77.6686 22.9815V20.9189H78.2337V23.7333H77.738L75.0173 21.6708V23.7333H74.4521V20.9189H74.9479Z" fill="white"/>
<path d="M83.3558 20.9196C83.5367 20.9196 83.7272 20.9702 83.8822 21.0984C84.0372 21.2266 84.1374 21.4387 84.1374 21.6793L84.1325 21.8725H83.5722V21.6509C83.5722 21.5258 83.5383 21.4767 83.4915 21.4387C83.4447 21.4008 83.3688 21.3754 83.2848 21.3754H80.9613C80.8773 21.3754 80.8014 21.4008 80.7546 21.4387C80.7078 21.4767 80.6739 21.5258 80.6739 21.6509V23.0011C80.6739 23.1261 80.7078 23.1752 80.7546 23.2132C80.8014 23.2512 80.8773 23.2765 80.9613 23.2765H83.2848C83.3688 23.2765 83.4447 23.2512 83.4915 23.2132C83.5383 23.1752 83.5722 23.1261 83.5722 23.0011V22.675H82.1142V22.2175H84.1325L84.1374 22.9726C84.1374 23.2148 84.0372 23.4253 83.8822 23.5535C83.7272 23.6817 83.5367 23.7324 83.3558 23.7324H80.8919C80.7126 23.7324 80.5205 23.6817 80.3655 23.5535C80.2105 23.4253 80.1104 23.2132 80.1104 22.9726V21.6778C80.1104 21.4356 80.2105 21.2251 80.3655 21.0968C80.5205 20.9686 80.711 20.918 80.8919 20.918H83.3558V20.9196Z" fill="white"/>
<path d="M92.4467 20.9196C92.6275 20.9196 92.818 20.9702 92.9731 21.0984C93.1281 21.2266 93.2282 21.4387 93.2282 21.6793L93.2233 21.8725H92.663V21.6509C92.663 21.5258 92.6291 21.4767 92.5823 21.4387C92.5355 21.4008 92.4596 21.3754 92.3756 21.3754H90.0521C89.9681 21.3754 89.8923 21.4008 89.8454 21.4387C89.7986 21.4767 89.7647 21.5258 89.7647 21.6509V23.0011C89.7647 23.1261 89.7986 23.1752 89.8454 23.2132C89.8923 23.2512 89.9681 23.2765 90.0521 23.2765H92.3756C92.4596 23.2765 92.5355 23.2512 92.5823 23.2132C92.6291 23.1752 92.663 23.1261 92.663 23.0011V22.675H91.205V22.2175H93.2233L93.2282 22.9726C93.2282 23.2148 93.1281 23.4253 92.9731 23.5535C92.818 23.6817 92.6275 23.7324 92.4467 23.7324H89.9827C89.8035 23.7324 89.6113 23.6817 89.4563 23.5535C89.3013 23.4253 89.2012 23.2132 89.2012 22.9726V21.6778C89.2012 21.4356 89.3013 21.2251 89.4563 21.0968C89.6113 20.9686 89.8018 20.918 89.9827 20.918H92.4467V20.9196Z" fill="white"/>
<path d="M95.0977 20.9189H98.0331C98.2124 20.9189 98.4045 20.9696 98.5595 21.0978C98.7145 21.226 98.8146 21.4381 98.8146 21.6787V22.0191C98.8146 22.2312 98.7371 22.4211 98.6128 22.5509C98.7371 22.6807 98.8146 22.8691 98.8146 23.0828V23.7333H98.2495V23.0543C98.2495 22.9292 98.2156 22.8817 98.1688 22.8422C98.1219 22.8042 98.0461 22.7789 97.9621 22.7789H95.6628V23.7333H95.0977V20.9189ZM95.6644 22.3214H97.9637C98.0477 22.3214 98.1236 22.2961 98.1704 22.2581C98.2172 22.2201 98.2511 22.171 98.2511 22.046V21.6502C98.2511 21.5252 98.2172 21.4777 98.1704 21.4381C98.1236 21.4001 98.0477 21.3748 97.9637 21.3748H95.6644V22.3214Z" fill="white"/>
<path d="M103.903 20.9189C104.082 20.9189 104.274 20.9696 104.429 21.0978C104.584 21.226 104.684 21.4381 104.684 21.6787V22.9736C104.684 23.2157 104.584 23.4263 104.429 23.5545C104.274 23.6827 104.084 23.7333 103.903 23.7333H101.439C101.259 23.7333 101.067 23.6827 100.912 23.5545C100.757 23.4263 100.657 23.2142 100.657 22.9736V21.6787C100.657 21.4366 100.757 21.226 100.912 21.0978C101.067 20.9696 101.258 20.9189 101.439 20.9189H103.903ZM101.303 21.4397C101.256 21.4777 101.222 21.5268 101.222 21.6518V23.002C101.222 23.1271 101.256 23.1762 101.303 23.2142C101.35 23.2521 101.426 23.2775 101.51 23.2775H103.833C103.917 23.2775 103.993 23.2521 104.04 23.2142C104.087 23.1762 104.121 23.1271 104.121 23.002V21.6518C104.121 21.5268 104.087 21.4793 104.04 21.4397C103.993 21.4001 103.917 21.3764 103.833 21.3764H101.51C101.426 21.3764 101.35 21.4017 101.303 21.4397Z" fill="white"/>
<path d="M107.108 20.9189V23.002C107.108 23.1271 107.142 23.1762 107.189 23.2142C107.236 23.2521 107.312 23.2775 107.396 23.2775H109.535C109.619 23.2775 109.695 23.2521 109.742 23.2142C109.788 23.1762 109.822 23.1271 109.822 23.002V20.9189H110.388V22.9736C110.388 23.2157 110.287 23.4263 110.132 23.5545C109.977 23.6827 109.787 23.7333 109.606 23.7333H107.324C107.145 23.7333 106.953 23.6827 106.798 23.5545C106.643 23.4263 106.543 23.2142 106.543 22.9736V20.9189H107.108Z" fill="white"/>
<path d="M115.218 20.9189C115.399 20.9189 115.589 20.9696 115.744 21.0978C115.899 21.226 116 21.4381 116 21.6787V22.0191C116 22.2612 115.899 22.4718 115.744 22.6C115.589 22.7282 115.399 22.7789 115.218 22.7789H112.849V23.7333H112.284V20.9189H115.22H115.218ZM112.849 22.3214H115.149C115.233 22.3214 115.308 22.2961 115.355 22.2581C115.402 22.2201 115.436 22.171 115.436 22.046V21.6502C115.436 21.5252 115.402 21.4777 115.355 21.4381C115.308 21.4001 115.233 21.3748 115.149 21.3748H112.849V22.3214Z" fill="white"/>
</g>
<defs>
<clipPath id="clip0_6327_3931">
<rect width="116" height="24" fill="white"/>
</clipPath>
</defs>
</svg>
