<svg width="116" height="41" viewBox="0 0 116 41" fill="none" xmlns="http://www.w3.org/2000/svg">
<g clip-path="url(#clip0_6327_3879)">
<path d="M7.92188 29.4736H9.88547V36.0253C9.88547 37.537 9.98065 39.2848 12.5253 39.2848C15.07 39.2848 15.1651 37.537 15.1651 36.0253V29.4736H17.1287V36.6732C17.1287 39.556 15.2904 40.9899 12.5253 40.9899C9.76024 40.9899 7.92188 39.556 7.92188 36.6732V29.4736Z" fill="white"/>
<path d="M18.8418 29.4736H20.8054V34.5939L25.802 29.4736H28.2215L23.7433 33.9636L28.5346 40.7212H26.0851L22.4083 35.3498L20.8054 36.9419V40.7212H18.8418V29.4736Z" fill="white"/>
<path d="M42.9714 40.7208H41.7141L41.4161 39.3974C40.3641 40.5952 39.4049 40.9895 38.0374 40.9895C34.6913 40.9895 32.665 38.3276 32.665 35.0983C32.665 31.9015 34.6913 29.207 38.0374 29.207C40.4718 29.207 42.5456 30.5154 42.8437 33.0516H40.9277C40.7223 31.5876 39.4675 30.8142 38.0374 30.8142C35.633 30.8142 34.6286 32.9412 34.6286 35.0983C34.6286 37.2554 35.633 39.3823 38.0374 39.3823C40.0636 39.43 41.1331 38.2021 41.1781 36.2961H38.1952V34.7994H42.9714V40.7208Z" fill="white"/>
<path d="M44.0059 36.6405C44.0059 34.167 45.5136 32.3564 48.1059 32.3564C50.6981 32.3564 52.2059 34.167 52.2059 36.6405C52.2059 39.1442 50.6981 40.9396 48.1059 40.9396C45.5136 40.9422 44.0059 39.1467 44.0059 36.6405ZM50.4151 36.6405C50.4151 35.2393 49.7088 33.7727 48.1059 33.7727C46.5029 33.7727 45.7966 35.2368 45.7966 36.6405C45.7966 38.0593 46.5029 39.5233 48.1059 39.5233C49.7088 39.5233 50.4151 38.0593 50.4151 36.6405Z" fill="white"/>
<path d="M52.04 32.5771H53.9886L56.0474 38.83H56.0799L58.0586 32.5771H59.912L57.0066 40.7209H54.9955L52.04 32.5771Z" fill="white"/>
<path d="M61.5277 37.1121C61.5277 38.3877 62.2189 39.5228 63.7117 39.5228C64.7636 39.5228 65.3772 39.0658 65.6903 38.1693H67.3859C67.0102 39.9497 65.4699 40.9416 63.7092 40.9416C61.147 40.9416 59.7344 39.1762 59.7344 36.6575C59.7344 34.3422 61.2421 32.3584 63.6616 32.3584C66.2238 32.3584 67.7941 34.6737 67.4961 37.1146H61.5277V37.1121ZM65.7053 35.9318C65.6277 34.7968 64.8888 33.7747 63.6616 33.7747C62.4218 33.7747 61.5727 34.7189 61.5252 35.9318H65.7053Z" fill="white"/>
<path d="M68.3379 32.5774H70.0185V34.1519H70.051C70.2564 33.2856 71.3384 32.3564 72.4229 32.3564C72.8461 32.3564 72.9263 32.3891 73.0991 32.4042V34.1369C72.8486 34.0892 72.5807 34.059 72.3302 34.059C71.1205 34.059 70.1312 35.0359 70.1312 36.8464V40.7212H68.3404V32.5774H68.3379Z" fill="white"/>
<path d="M73.8682 32.5769H75.5638V33.7747L75.5963 33.8073C76.1448 32.9083 77.0565 32.3584 78.126 32.3584C79.9017 32.3584 81.0012 33.2875 81.0012 35.1307V40.7231H79.2105V35.6028C79.1629 34.3272 78.692 33.7747 77.6225 33.7747C76.4279 33.7747 75.6589 34.7189 75.6589 35.9167V40.7206H73.8682V32.5769Z" fill="white"/>
<path d="M82.3228 32.5769H84.0184V33.7119H84.066C84.617 32.9083 85.2607 32.3584 86.5631 32.3584C87.5524 32.3584 88.4791 32.7828 88.8423 33.7119C89.4559 32.8782 90.1922 32.3584 91.3869 32.3584C93.1001 32.3584 94.1044 33.1293 94.1044 35.0981V40.7206H92.3136V35.9644C92.3136 34.6561 92.236 33.7747 90.8359 33.7747C89.6262 33.7747 89.1077 34.5632 89.1077 35.9494V40.7231H87.317V35.4923C87.317 34.3573 86.9713 33.7747 85.8869 33.7747C84.9602 33.7747 84.1111 34.5456 84.1111 35.8866V40.7231H82.3203V32.5769H82.3228Z" fill="white"/>
<path d="M96.8197 37.1121C96.8197 38.3877 97.5109 39.5228 99.0037 39.5228C100.056 39.5228 100.669 39.0658 100.982 38.1693H102.678C102.302 39.9497 100.762 40.9416 99.0011 40.9416C96.439 40.9416 95.0264 39.1762 95.0264 36.6575C95.0264 34.3422 96.5341 32.3584 98.9536 32.3584C101.516 32.3584 103.086 34.6737 102.788 37.1146H96.8197V37.1121ZM100.997 35.9318C100.92 34.7968 100.181 33.7747 98.9536 33.7747C97.7138 33.7747 96.8647 34.7189 96.8171 35.9318H100.997Z" fill="white"/>
<path d="M103.63 32.5769H105.325V33.7747L105.358 33.8073C105.907 32.9083 106.818 32.3584 107.888 32.3584C109.663 32.3584 110.763 33.2875 110.763 35.1307V40.7231H108.972V35.6028C108.925 34.3272 108.454 33.7747 107.384 33.7747C106.19 33.7747 105.421 34.7189 105.421 35.9167V40.7206H103.63V32.5769Z" fill="white"/>
<path d="M111.241 32.5766H112.591V30.1357H114.382V32.5766H116V33.9151H114.382V38.2619C114.382 39.0027 114.445 39.3794 115.246 39.3794C115.497 39.3794 115.749 39.3794 116 39.3166V40.7028C115.607 40.7505 115.231 40.7982 114.838 40.7982C112.952 40.7982 112.639 40.0725 112.591 38.7189V33.9151H111.241V32.5766Z" fill="white"/>
<path d="M1.4176 0H0V41H1.4176V0Z" fill="white"/>
<path d="M33.0066 13.0082L32.9422 13.0012L32.7658 12.5404C32.8492 12.4375 32.8922 12.2738 32.7658 12.192C32.5941 12.1265 32.1125 11.5932 31.9694 11.9394C31.9074 11.9604 31.5259 11.9815 31.4973 12.0493C31.3088 11.7646 31.1566 11.4582 31.0443 11.1371C31.1182 10.7536 32.1697 10.2718 32.1697 10.2718C32.1697 10.2718 31.8717 9.85545 31.7524 9.61923C31.7 9.73617 31.6523 9.68706 31.5378 9.73617C32.1196 8.73047 32.2436 7.40435 31.4711 6.45244C31.3924 6.28872 31.4282 6.07121 31.3519 5.90749C31.2183 5.73675 31.1253 5.39762 30.8869 5.36254C30.8869 5.66191 30.8559 5.95426 31.0061 6.23259C31.1635 6.42437 30.7868 6.59043 30.6723 6.43607C30.8941 6.41268 30.9346 6.36824 30.8559 6.24428C29.8902 6.03379 29.3538 6.69334 28.431 6.79625C28.3499 6.79625 28.2784 6.82431 28.2331 6.89448C27.6656 7.63589 28.9389 7.1307 29.0486 7.62186C28.8364 7.79259 28.8077 7.68033 28.6075 7.63121C28.3213 7.64291 28.0447 7.72945 28.4024 7.96333C28.183 8.29778 28.195 8.41473 27.7491 8.44279C27.9422 8.70708 27.9017 9.08831 27.9518 9.38768C27.6346 9.44382 27.42 9.59116 27.4129 9.92094C27.2698 9.95134 27.1172 9.87884 27.0171 10.0285C26.8168 9.86715 26.5879 9.83908 26.3495 9.8344C26.235 9.7502 25.9537 9.55374 25.6508 9.40406L25.8201 8.79128L26.3113 8.48723L26.0538 7.98438C26.6237 6.08758 26.8073 5.97999 27.0958 5.94023L27.1101 5.88644L26.0609 5.559L26.0419 5.62917C26.3042 5.81627 26.3924 6.125 26.2708 6.48986C25.9918 6.37292 25.832 6.11331 25.8607 5.88176L25.7915 5.86305L25.441 6.99739L25.4959 7.01376C25.6341 6.81964 25.8774 6.70971 26.1539 6.75649C25.8297 7.75985 24.3657 7.44645 24.6279 6.59277C24.8139 6.24194 25.1692 6.46647 24.9975 6.83601C25.8201 6.55535 25.3337 5.40931 24.6327 6.0946C24.864 5.6315 24.9951 5.26898 24.7042 4.82227C24.3251 5.05849 24.2274 5.4865 24.3013 6.05483C23.8387 5.02574 23.0304 6.08524 23.6861 6.62317C23.5669 5.85837 24.5397 6.36356 23.8816 6.97868C23.2545 7.40902 22.4844 6.91553 22.4629 6.15541C22.8254 6.18581 23.0996 6.39397 23.1377 6.65592H23.2045L23.2498 5.3602L23.1663 5.35786C23.1115 5.61981 22.8158 5.842 22.4462 5.84902C22.4701 5.45141 22.7085 5.13801 23.0113 5.08655V5.01405H21.471V5.08655C21.7762 5.13801 22.0123 5.44908 22.0385 5.84902C21.6666 5.842 21.3709 5.61981 21.3161 5.35786L21.235 5.3602L21.2779 6.65826L21.3447 6.65592C21.3828 6.39397 21.6594 6.18581 22.0194 6.15541C21.998 6.91319 21.2278 7.40902 20.6007 6.97868C19.945 6.36356 20.9155 5.85837 20.7963 6.62317C21.4543 6.08524 20.6437 5.02574 20.1811 6.05483C20.2526 5.4865 20.1573 5.05849 19.7781 4.82227C19.4872 5.26898 19.6184 5.6315 19.8497 6.0946C19.1487 5.40931 18.6646 6.55769 19.4849 6.83601C19.3156 6.46647 19.6685 6.24194 19.8544 6.59277C20.1167 7.44645 18.6527 7.75985 18.3284 6.75649C18.6074 6.70971 18.8482 6.81964 18.9865 7.01376L19.0438 6.99739L18.6909 5.86305L18.6193 5.88176C18.6527 6.11331 18.493 6.37292 18.2116 6.48986C18.0924 6.125 18.1758 5.81393 18.4429 5.62683L18.4238 5.56134L17.3723 5.88878L17.3866 5.94023C17.6751 5.97999 17.8587 6.08758 18.4286 7.98438L18.1711 8.48723L18.6623 8.79128L18.8172 9.34558L18.822 9.34325C18.822 9.35026 18.8196 9.3526 18.8172 9.34558C17.4009 9.98877 17.7228 10.4238 16.6355 10.2998C16.5378 10.5173 16.4448 10.7349 16.2254 10.8845C16.1814 10.5739 16.0426 10.2837 15.8272 10.0519C15.7271 9.93731 15.5888 10.0636 15.4386 10.0753C15.1429 10.6998 14.9379 10.1361 14.4181 10.4612C14.4395 10.7536 14.4848 11.0436 14.6494 11.3126C14.3059 11.3001 13.9725 11.1949 13.6861 11.0085C12.5297 12.2621 11.3208 13.4666 10.3313 14.8489C9.80432 15.5271 8.39039 15.1295 8.76235 14.1963C8.93403 13.5157 9.94738 13.6607 9.88301 14.3367C10.3837 13.7964 10.0642 13.2585 9.29645 13.3777C9.99984 13.0831 10.4219 13.642 11.0561 12.8749C10.5721 12.8843 10.162 12.7346 9.67795 12.8445C10.2907 12.489 11.13 13.0176 11.6498 12.0376C11.1968 12.0844 10.7843 12.2691 10.3146 12.337C13.1377 9.72214 10.4219 9.5935 10.7676 8.46384C10.5459 8.64627 10.4195 8.8287 10.522 9.07194C9.88778 8.81467 8.95072 8.89185 8.69559 8.14576C8.6336 9.20759 9.11286 9.13275 9.94023 9.35026C9.55873 9.30582 9.182 9.30349 8.82435 9.17485C8.89826 9.65197 9.27022 9.75254 9.70895 9.70811C9.27976 9.93731 9.37752 10.5314 9.81386 10.7349C9.53489 9.19824 11.9073 9.72448 10.8248 11.1371C10.3217 11.8622 9.5945 12.4048 8.9841 13.0386C8.86727 12.8445 8.74566 12.6504 8.481 12.6784C8.94595 13.2 8.42139 13.7683 8.2974 14.3063C8.11857 14.9705 8.7242 15.5365 9.37037 15.616C9.11286 15.9131 9.09378 16.1773 9.29168 16.4206C9.4872 15.4429 10.9464 15.6628 11.0847 14.6056C11.1086 14.4817 11.1706 14.3835 11.3136 14.3273C10.6555 15.05 12.2364 16.5773 10.7509 16.755C10.5387 16.7621 10.4886 16.9772 10.6031 17.1316C9.9903 17.1012 9.82101 17.3281 9.72802 17.8917L10.5029 17.6953C10.2359 18.3735 9.63026 17.6555 9.73041 18.8647C9.97838 18.7501 10.212 18.6284 10.4386 18.4905C10.6579 19.1687 9.32506 18.8764 10.3265 19.9592C10.4285 19.6934 10.587 19.4518 10.7915 19.2506C10.6698 19.592 10.6961 19.9873 11.0919 20.1393L11.1443 19.8891H11.1753C11.2326 20.1136 11.2421 20.427 11.4662 20.558C11.5401 20.5861 11.5807 20.6282 11.6069 20.703C11.6474 20.8293 11.7667 20.862 11.8835 20.8761C12.0313 20.9065 12.0695 20.7451 12.1768 20.6796C12.2078 20.8574 12.4247 20.8878 12.5344 21.0398C12.6131 20.158 11.409 20.4785 11.6856 19.8938C11.7929 20.2493 12.1339 20.1744 12.3723 20.3171C12.4677 20.4644 12.6918 20.5884 12.8062 20.3826L13.1186 20.6094C12.8849 19.564 12.3246 20.2118 11.9741 19.6622C12.2173 19.6716 12.4796 20.0247 12.7442 19.7838C12.8873 19.9265 12.997 20.0926 13.1043 20.261C13.1293 20.1114 13.1087 19.9579 13.045 19.8197C12.9814 19.6816 12.8776 19.5649 12.7466 19.4845C12.4414 19.3044 12.0266 19.6248 11.7643 19.2623C11.4066 18.8343 11.4185 18.2332 11.6045 17.7373C11.7738 17.3561 12.2483 17.2134 12.47 16.8533C12.4081 17.1713 12.439 17.7257 12.811 17.8286C12.7204 17.2368 13.1544 16.7036 13.2426 16.1306C13.357 15.9856 13.3618 15.8733 13.2593 15.7166C13.0733 15.4219 13.0232 15.0687 12.8205 14.7787C12.5034 14.346 12.1124 14.3343 12.7586 13.8806C12.3675 14.4723 12.687 14.2548 13.0256 14.8138C13.0876 14.6267 13.3761 14.3811 13.0161 14.3811C12.4462 14.1098 13.7552 13.4035 14.0533 13.3871C14.3465 13.3637 14.7543 13.3965 14.976 13.1158C14.8377 12.8632 14.7042 12.8234 14.9426 12.5592C14.7829 12.4679 14.6422 12.3604 14.6136 12.1592L14.1725 12.3066C14.3155 12.1499 14.7376 11.8318 14.7829 12.1849C14.7924 12.3814 14.9951 12.4188 15.1525 12.4656C15.038 12.6293 14.8473 12.793 15.0213 12.9801C15.1405 13.1064 15.2168 13.3403 15.4052 13.3707L15.5554 12.8305C15.9703 13.2515 15.1382 13.4853 16.2779 13.8666C16.2261 13.6419 16.21 13.4108 16.2302 13.1813C16.7786 13.6257 15.9918 13.9063 17.2555 14.0513C17.1172 13.8876 17.0838 13.7099 17.0313 13.5274C17.2436 13.5625 17.4128 13.7566 17.5488 13.904C17.6799 14.0981 17.7753 14.2034 18.0733 14.0139C18.0876 14.049 18.09 14.0934 18.1162 14.1145C18.2498 14.2127 18.1949 14.332 18.1925 14.463H18.2283C18.4047 14.2899 18.419 14.0934 18.3618 13.8783C18.2426 13.4713 17.73 13.7941 17.5511 13.3801C17.7896 13.5391 18.0328 13.6327 18.2974 13.497C18.4453 13.635 18.5073 13.7333 18.5788 13.925C18.698 13.4877 18.5597 13.041 18.0852 13.1719C17.9374 13.2234 17.8754 13.2117 17.7276 13.0854C17.9469 13.1602 18.0948 13.0503 18.2354 12.9521C18.2664 12.9918 18.2831 13.0339 18.3046 13.0363C18.4381 13.0433 18.524 13.1205 18.6074 13.2164C18.6527 12.8422 18.2688 12.5381 17.8826 12.634C17.7872 13.0947 17.389 12.8351 17.0719 12.7743C16.5855 12.4937 16.328 11.9627 15.8964 11.6166C15.9047 11.4954 15.8863 11.3739 15.8423 11.2604C15.7983 11.1469 15.7297 11.0441 15.6414 10.959C15.5531 10.8739 15.447 10.8085 15.3305 10.7674C15.214 10.7263 15.0898 10.7104 14.9665 10.7208C15.4434 10.5173 16.0132 10.9173 16.049 11.4014C16.0681 11.6002 16.192 11.7265 16.3208 11.8739C17.9398 8.71644 23.1616 7.88849 26.1587 9.89287C26.4138 10.1221 26.6904 10.3068 26.9551 10.5477C27.06 10.2437 26.998 9.88586 27.4606 10.0683L27.5488 10.0122C27.5285 9.95077 27.5225 9.8857 27.5313 9.82174C27.5401 9.75779 27.5635 9.6966 27.5997 9.6427C27.6358 9.5888 27.6839 9.54357 27.7403 9.51036C27.7967 9.47714 27.86 9.4568 27.9255 9.45083V9.6473C27.8063 9.66835 27.7109 9.78061 27.73 9.90457C27.823 9.88352 27.9065 10.0028 27.8564 10.08C27.9011 10.1025 27.952 10.1105 28.0016 10.1029C28.0513 10.0954 28.0973 10.0726 28.133 10.0379L28.3619 10.0566C28.257 10.2998 27.8921 10.384 27.6847 10.2039C27.7252 10.2577 27.5464 10.7957 27.5416 10.8588C27.5313 10.8969 27.5078 10.9302 27.4752 10.9533C27.4426 10.9763 27.4029 10.9875 27.3628 10.9851L27.4534 11.1278C27.5846 11.0576 27.7682 11.0623 27.7515 10.8822C27.7753 10.7793 27.7085 10.3068 27.8588 10.3489C27.9184 10.529 27.8039 10.7349 27.9398 10.9103C28.3738 10.8074 28.183 10.4285 28.7076 10.3302C28.9174 10.3115 29.3561 10.2133 29.4682 10.4144C29.0104 10.2975 28.4191 10.4191 28.3166 10.9266C27.8397 11.0342 27.4391 11.3663 26.9336 11.3663C26.5283 11.3874 26.421 11.8575 26.4043 12.1803C26.3352 12.5498 26.3161 12.9334 26.1468 13.2772C26.0633 13.4082 26.1325 13.5578 26.1778 13.6795C26.3328 13.759 26.4424 14.2782 26.4639 14.4653C26.4639 14.8044 27.0624 14.9167 27.308 15.1295C27.3747 14.7039 26.545 14.8255 26.6618 14.2291C26.8096 14.6244 27.1315 14.7039 27.4844 14.898C27.3747 14.5004 27.3414 13.8385 26.7691 13.9204C26.5474 13.6233 26.8692 13.607 26.7667 13.2515C26.9312 13.3006 27.0075 13.3567 27.0528 13.4549L26.8859 13.4035C26.905 13.6561 27.1291 13.7145 27.3032 13.8876C27.2746 13.476 27.2364 13.2164 26.8406 13.0152C26.6165 12.8164 26.874 12.358 26.8597 12.082C26.8526 12.0025 27.389 11.7429 27.4701 11.7663C27.8683 11.8154 28.2832 11.7546 28.6671 11.8505C29.0509 11.9674 28.7219 11.1605 29.3418 11.5862C28.8936 11.4576 29.1654 11.9323 28.8411 11.9581C28.617 11.9581 28.4239 11.9394 28.1878 11.93C29.0033 13.6888 30.8082 13.1743 31.3042 14.7436C31.7191 14.3881 31.4377 14.3928 31.3209 14.0209C32.2603 14.629 30.4482 15.3307 31.1301 16.3972C31.0848 16.2756 31.5116 15.7774 31.5593 15.6768C31.6356 15.5646 31.7691 15.5599 31.8526 15.6394L31.9885 15.3658C31.7357 15.2324 32.1935 14.6571 32.2269 14.4934C32.2746 14.3951 32.3819 14.3484 32.4654 14.3881L32.5917 14.0467C32.3533 13.9835 32.5321 13.4222 32.5131 13.2655C32.1792 12.9708 31.9027 12.6013 31.6428 12.2598L31.8025 12.2364C31.7858 12.3112 31.8144 12.3954 31.8812 12.4399C31.9956 12.4843 32.4368 12.8983 32.575 12.8001L32.6466 12.9825C32.5345 13.0106 32.5154 13.1626 32.5131 13.2655C32.5727 13.3123 32.637 13.359 32.6943 13.4105C32.7014 13.3731 32.6966 13.207 32.73 13.1813C32.7825 13.2491 32.8779 13.2515 32.9375 13.1953C32.9899 13.2234 32.9232 13.5859 32.9303 13.6327C32.9947 13.7028 33.0567 13.773 33.1139 13.8432C33.0901 13.6795 33.2999 13.041 33.009 13.0082H33.0066ZM28.2784 7.07457L28.4596 7.05586C28.3404 6.974 28.4549 6.8594 28.555 6.93892C28.7887 7.11667 28.3166 7.40669 28.2784 7.07457ZM18.8745 8.73749L18.3809 8.43344L18.6432 7.91889L19.3537 8.16681L18.8768 8.73749H18.8745ZM20.4911 8.33988C19.7161 8.49425 19.554 7.6663 20.3313 7.52831C21.1038 7.37628 21.2684 8.20423 20.4911 8.33988ZM22.2412 8.27673L21.4782 7.75283L22.2412 7.23127L23.0042 7.75283L22.2412 8.27673ZM24.6709 8.04519C24.5803 8.57611 23.3595 8.3469 23.4763 7.823C23.5669 7.29442 24.7877 7.52129 24.6685 8.04519H24.6709ZM25.1287 8.16681L25.844 7.92123L26.1039 8.4311L25.6079 8.73749L25.1287 8.16681ZM31.0037 5.73675C31.1468 5.88878 31.2064 6.0525 31.2064 6.23726C31.0705 6.19283 31.0133 6.05016 31.0037 5.73675ZM30.3623 6.71907C30.174 6.84302 30.0047 7.02779 29.8139 6.77754L29.6852 6.80093C29.9713 6.37292 29.9475 6.44776 30.3623 6.71673V6.71907ZM28.7863 8.27206C28.9127 8.31649 29.0319 8.37964 29.1582 8.25802C29.0366 8.25802 28.9985 8.17383 28.9651 8.09431C28.9055 7.68969 29.585 7.83235 29.8378 7.86042C30.4768 8.23931 31.5617 8.00075 31.185 7.10264C31.4806 7.27805 31.3781 7.77154 31.154 7.96333C30.565 8.27206 30.0047 8.03817 29.4158 8.64627C29.3275 8.36795 28.9866 8.38432 28.8674 8.68837L28.617 8.70007C28.5979 8.54102 28.7338 8.42408 28.7863 8.27206ZM31.0109 10.9266L30.9322 11.0249C30.441 10.4823 28.7863 9.85779 28.071 9.95836L28.0829 9.8344L28.0781 9.83908L28.3499 9.67068L28.1163 9.48358C28.1187 9.45785 27.9684 8.54336 27.9684 8.54336L28.3786 8.53167C28.3786 8.53167 28.2331 8.69539 28.226 8.8287C28.2498 8.84507 28.2689 8.86846 28.2832 8.89653C28.3642 8.86145 28.4525 8.69539 28.4525 8.69539L28.4906 9.238C28.4906 9.238 28.3786 9.0813 28.2951 9.05323C28.2893 9.07333 28.2787 9.09177 28.2641 9.10702C28.3833 9.46487 28.9222 9.48592 28.9246 9.17719C28.9055 9.02049 28.7243 9.04621 28.7338 9.21461C28.4382 8.9854 28.8387 8.62288 29.0009 8.98774C28.9818 8.77725 29.0009 8.65797 29.1678 8.55506C29.2798 8.69071 29.2632 8.81935 29.1439 9.02283C29.5064 8.69539 29.6447 9.25203 29.3037 9.33389C29.4706 9.04154 28.9913 9.13275 29.1678 9.43914C29.3275 9.6777 29.7162 9.64262 29.8545 9.38301C29.8451 9.36791 29.8387 9.35127 29.8354 9.33389C29.6971 9.3105 29.4944 9.42043 29.4944 9.42043L29.6852 8.92226C29.6852 8.92226 29.7639 9.13509 29.8759 9.20292C29.8998 9.18421 29.9236 9.17017 29.9522 9.16316C29.9737 9.03218 29.8378 8.82636 29.8378 8.82636L30.4673 9.06259C30.4673 9.06259 30.2169 9.1234 30.1382 9.23332C30.1525 9.25671 30.1621 9.28244 30.1644 9.3105C30.2956 9.33389 30.5078 9.23098 30.5078 9.23098L30.2837 9.71512C30.2837 9.71512 30.2169 9.50463 30.1001 9.43446C30.0849 9.44502 30.0679 9.45293 30.05 9.45785C30.0306 9.52174 30.0286 9.58948 30.044 9.65439C30.0595 9.71929 30.0919 9.77913 30.1381 9.828C30.1843 9.87687 30.2427 9.91308 30.3076 9.93307C30.3724 9.95306 30.4414 9.95613 30.5078 9.94199C30.8559 9.83908 30.5793 9.45551 30.484 9.77827C30.298 9.49527 30.8035 9.18421 30.8273 9.65665C30.8893 9.42978 30.9704 9.32687 31.1516 9.29881C31.1993 9.48358 31.1277 9.58181 30.9561 9.7198C31.3471 9.5631 31.3638 10.087 30.9871 10.0589C31.1182 9.94199 31.0037 9.80634 30.875 9.91159C30.6509 10.1385 31.0705 10.4659 31.3995 10.3022C31.3995 10.2835 31.4067 10.2624 31.4162 10.2437C31.3328 10.1899 31.1397 10.1829 31.1397 10.1829L31.545 9.89287C31.545 9.89287 31.4949 10.0683 31.5331 10.1618C31.5641 10.1572 31.5927 10.1618 31.6213 10.1712C31.7095 10.0847 31.7143 9.85779 31.7143 9.85779L32.0147 10.2227C32.0147 10.2227 31.2589 10.5618 31.1253 10.66L30.9155 10.6366L31.0181 10.9266H31.0109ZM32.6394 12.4188C32.544 12.4118 32.4654 12.4913 32.4964 12.5919C32.487 12.5909 32.478 12.5877 32.4701 12.5825L32.0266 12.2878C32.0128 12.278 32.0031 12.2636 31.9991 12.2473C31.9952 12.231 31.9974 12.2139 32.0052 12.199C32.0886 12.1966 32.1792 12.1522 32.1673 12.0563C32.2007 12.0984 32.6776 12.344 32.6394 12.4188Z" fill="white"/>
<path d="M27.2929 10.3305C27.2595 10.2907 27.2524 10.237 27.281 10.1925C27.2285 10.1832 27.1379 10.6673 27.1212 10.6954C27.157 10.7281 27.188 10.7609 27.2166 10.7959C27.2643 10.8076 27.343 10.8334 27.3597 10.7679L27.4741 10.3399C27.4217 10.3866 27.3358 10.3913 27.2953 10.3305H27.2929ZM20.631 22.4293C19.3816 21.9499 18.4707 23.1263 19.4912 23.3251C18.3706 23.3719 18.5876 21.8399 18.125 21.9312C18.5303 22.3545 18.5303 23.1474 18.9047 23.3649C19.6581 23.6759 20.4402 23.7251 21.2485 23.69C20.8432 23.3391 20.743 22.8971 20.631 22.4293ZM24.4555 23.3087C25.4736 23.1123 24.5699 21.9312 23.3158 22.413C23.2037 22.8807 23.1059 23.3251 22.6982 23.6736C23.5065 23.711 24.2886 23.6596 25.0421 23.3462C25.4164 23.1287 25.4164 22.3405 25.8217 21.9148C25.3592 21.8212 25.5762 23.3555 24.4555 23.3087ZM32.6577 13.8037C32.6577 13.8271 32.6673 13.8505 32.6816 13.8645C32.7388 13.8177 32.8294 13.8364 32.8699 13.8926C32.9343 13.8739 32.9129 13.6774 32.9272 13.6306C32.8532 13.5534 32.7746 13.4786 32.6935 13.4108L32.6601 13.8037H32.6577ZM32.3478 15.2608C32.3525 15.2047 32.6673 14.6995 32.5862 14.655C32.5571 14.6604 32.5271 14.6564 32.5005 14.6438C32.4739 14.6312 32.4521 14.6105 32.4384 14.5849C32.3621 14.5521 32.1618 15.1041 32.1284 15.1392C32.2262 15.0784 32.3549 15.1789 32.3191 15.2912C32.3307 15.2838 32.3398 15.2732 32.3454 15.2608H32.3478Z" fill="white"/>
<path d="M35.9247 12.9272C35.6624 13.0043 35.5551 13.2172 35.4573 13.4557C34.7992 12.4594 33.5475 11.7718 33.3567 10.5532C33.5022 9.57793 34.835 9.80012 34.5632 10.8175C35.2547 10.4573 34.9209 9.78843 34.2699 9.66914C34.9781 9.72294 35.362 10.3006 35.8436 9.33937C35.4287 9.48671 34.7921 9.38147 34.5727 9.35106C35.4526 9.23412 35.9318 9.24114 35.9032 8.18164C35.6052 8.81781 34.7754 8.8295 34.1722 9.03532C34.2103 8.75466 34.1197 8.57924 33.886 8.48803C34.1245 10.0387 31.0963 9.53349 34.4225 12.878C34.0172 12.6582 33.5403 12.733 33.1445 12.4898C33.4545 13.2944 33.9743 13.154 34.6538 13.4347C33.9242 13.4323 33.6977 14.1223 34.2365 14.4544C34.0959 13.9212 34.8517 13.554 35.2308 13.9703C36.094 15.0461 34.5155 16.543 33.1111 13.844C33.123 13.9937 33.0157 14.127 32.8655 14.0825L32.7082 14.5082C33.0277 14.6252 32.5365 15.2262 32.5007 15.3993C32.4459 15.5162 32.3219 15.549 32.2289 15.4858L32.0739 15.7993C32.267 15.9723 31.7449 16.4611 31.6853 16.6155C31.6257 16.702 31.5184 16.7324 31.4397 16.6857L31.3848 16.7979L31.4039 16.8213C31.7592 17.2283 31.9213 17.5417 31.8259 17.9744C32.1121 17.7358 32.2432 17.0716 32.0119 16.7114C32.2742 16.9733 32.6485 17.1628 32.7988 17.4996C32.8805 17.7933 32.8874 18.1022 32.8188 18.3991C32.7502 18.696 32.6082 18.9718 32.4053 19.2023C32.2241 19.3777 32.2718 19.4712 32.248 19.6887C32.1288 20.0349 31.7043 20.063 31.5422 20.3553C31.4301 20.6126 31.2442 20.8231 31.1631 21.0897C31.6471 21.0172 31.5637 20.3647 32.0215 20.229C31.8355 20.505 31.6567 20.7529 31.5303 21.071C31.9118 20.9751 32.6295 20.8745 32.5079 20.353C32.4196 20.1121 32.6605 19.953 32.6485 19.7215C32.949 19.6186 32.8798 19.4993 33.0253 19.2701C33.092 19.4104 33.0944 19.5274 33.0873 19.677L32.9991 19.4993C32.7845 19.78 32.9633 20.0559 32.9347 20.3577C33.9862 19.4408 32.5889 19.4478 33.681 17.4201C33.9313 17.0154 32.9657 17.0599 32.8941 16.1477C32.8274 15.7525 33.185 15.4297 33.2589 15.0532C33.681 15.7782 35.1497 15.7548 34.9518 16.6833C35.2451 16.4658 35.2332 16.0706 35.1164 15.7712C36.6328 15.2426 35.4359 13.8884 35.9247 12.9272Z" fill="white"/>
<path d="M31.4106 16.416C31.444 16.43 31.4726 16.4534 31.4845 16.4861C31.4978 16.4879 31.5113 16.486 31.5235 16.4806C31.5358 16.4753 31.5462 16.4666 31.5537 16.4557C31.5656 16.4206 31.9399 15.9435 31.897 15.9108C31.8565 15.8991 31.8183 15.871 31.804 15.8289C31.7683 15.7962 31.7182 15.7798 31.6824 15.8289C31.6681 15.8897 31.2532 16.3481 31.3581 16.4043C31.3772 16.4043 31.3939 16.4089 31.4106 16.416ZM31.1912 16.5118L31.2103 16.5422L31.2151 16.5282L31.1912 16.5095V16.5118ZM16.5154 18.5724C16.668 18.6004 16.835 18.6285 16.9828 18.563L16.2937 17.4263C15.8884 17.9128 15.1802 17.6158 14.7343 17.3164C14.3743 17.0591 15.154 16.6545 14.9036 15.7915C15.2517 16.3364 14.6175 16.8065 15.5951 17.1129C15.3137 16.706 15.3519 16.1774 15.247 15.712C15.2327 15.6324 15.1921 15.5529 15.2589 15.4711C15.2923 15.3588 15.2994 15.2091 15.1444 15.1904C14.0524 14.5823 14.2718 14.8793 13.2107 14.739C12.9484 15.1834 13.504 15.5833 13.4158 16.0207C13.3371 16.2359 13.6733 16.2265 13.6685 16.4347C13.7424 16.7621 13.7067 17.2158 13.3228 17.3421C13.132 17.4544 13.2846 17.6906 13.4515 17.7444C13.113 18.3361 13.3728 18.432 13.8903 18.7267C13.8926 18.4999 13.8974 18.2987 13.9952 18.1046C14.7105 18.5653 13.6447 18.6425 15.0586 19.1992C14.9155 18.97 14.9203 18.7197 14.8988 18.4905L15.2946 18.5794C15.4496 19.2155 15.8025 19.2717 16.4272 19.2155C16.2031 19.0004 16.1411 18.7197 15.979 18.4952C16.1673 18.5583 16.3533 18.432 16.5154 18.5724ZM29.2551 15.0314C29.0644 15.0618 29.0167 15.1413 29.0548 15.3261C28.8379 15.7774 28.8331 16.3271 28.4635 16.7083C29.2575 16.4908 29.0835 16.2008 29.2742 15.6161C29.2337 16.4089 29.2766 16.3972 29.5723 16.9422C28.9619 17.3585 27.9628 17.0077 27.629 17.8169C27.722 17.9222 27.8436 17.8169 27.9652 17.845C27.8865 17.9385 27.8531 18.0485 27.7267 18.1303L27.7887 17.9549C27.5598 17.8801 27.3715 18.3876 27.1998 18.5513C28.8331 18.2332 27.0043 17.7678 30.2208 17.4053C30.7883 17.1433 29.6843 16.7364 30.8002 16.0488C30.898 15.6745 30.9576 15.2886 31.1698 14.9495C31.2175 14.8396 31.1388 14.6829 31.0363 14.6057C30.5451 14.9401 30.3138 14.3999 29.2551 15.0314ZM12.7744 8.51768L12.7982 8.1996L12.4358 8.13879C12.5014 8.08789 12.579 8.05395 12.6615 8.04006C12.744 8.02617 12.8287 8.03277 12.9079 8.05927C12.7839 8.56914 13.0057 8.92932 13.5708 8.95972C13.7424 8.70947 13.895 8.67204 14.0643 8.84746C13.3204 8.77261 13.8736 9.53508 14.2527 9.2778C14.3528 9.13747 14.6747 9.01118 14.5817 8.81004C13.9904 8.39372 14.0333 9.01118 13.9213 7.97741L13.8473 7.97039C13.7925 8.16685 13.5922 8.32122 13.4301 8.13411C13.3728 8.07096 13.3252 8.01483 13.2322 7.99846C13.6375 7.68505 14.1168 8.13879 14.0882 7.40205C14.5388 7.94934 14.577 7.34124 15.0228 7.33189C15.0014 7.76691 14.9108 7.73183 14.5245 7.7061C14.6509 7.79966 15.1301 8.26742 14.8512 8.30952C14.7343 8.01951 14.5388 7.73651 14.2074 7.67804C13.9379 7.93765 14.0691 8.23 14.112 8.52938C14.3504 8.44985 14.5531 8.30017 14.8035 8.31888C14.8893 8.55978 14.4935 8.69309 14.7176 8.92698C15.1015 8.99013 15.5188 8.99247 15.3972 8.46389C15.2708 8.39138 15.1468 8.34227 15.0157 8.47558C15.0228 8.26976 15.2303 8.23468 15.3924 8.27444C15.7453 7.90724 15.6285 7.4231 15.247 7.12841C15.3471 6.98574 15.4544 6.88517 15.6356 6.85009C15.576 6.97405 15.4449 7.02082 15.4163 7.13309L15.6571 7.42076C15.8621 7.33423 15.9146 7.02316 15.7715 6.70508C15.5188 6.76823 15.0753 6.97171 15.0753 6.97171C14.8607 6.89219 14.9513 6.99509 14.9823 7.098C14.2908 7.21962 13.6089 7.39738 13.0581 7.84409C12.9604 7.91426 12.915 7.87216 12.8817 7.73651C12.8173 7.63828 12.7863 7.80667 12.7768 7.84877C12.7768 7.84877 12.3595 7.947 12.1807 8.09669C12.307 8.30251 12.4882 8.62527 12.7768 8.51768H12.7744Z" fill="white"/>
<path d="M15.4952 8.31502C15.5596 8.61907 15.4714 8.874 15.2663 9.11256C15.5739 9.6505 16.0961 10.0551 16.3274 10.6328C16.8424 9.69961 16.2916 9.38621 15.5834 8.874C16.0365 9.03304 16.4967 9.18507 16.7494 9.60372C16.8019 8.80384 16.437 8.40389 15.6359 8.27993L15.6431 8.24719C15.9769 8.23082 16.3107 8.23316 16.6206 8.42962C16.5396 8.1817 16.3321 7.81451 16.0293 7.84491C16.1366 7.62506 16.1366 7.48005 16.0269 7.34674C15.9745 7.5011 15.8743 7.59699 15.7098 7.60401C15.7241 7.73057 15.7125 7.85865 15.6756 7.98074C15.6388 8.10283 15.5774 8.21648 15.4952 8.31502ZM12.9487 10.1393C13.0441 10.3638 13.1848 10.6235 13.4184 10.717C13.2992 10.275 13.6044 9.8914 13.7475 9.49146C13.7499 10.413 13.2134 10.9111 14.5105 11.2479C14.1647 10.7077 14.3936 10.0504 14.1767 9.49379C13.9668 9.37685 13.7308 9.34879 13.5901 9.17805C13.552 9.09853 13.4804 9.06812 13.4041 9.05409C13.1609 9.00264 12.9344 8.92312 12.8128 8.72665C12.634 8.78045 12.5267 8.77343 12.3622 8.70794C12.3479 8.90441 12.5195 9.10087 12.746 9.02603C12.5648 9.2833 12.665 9.51484 12.7317 9.77913C12.8546 9.54243 13.0474 9.3476 13.2849 9.22015C13.1132 9.50315 12.808 9.78849 12.9487 10.1417V10.1393ZM18.1657 19.5321C18.3422 19.3731 18.1037 19.2818 18.0107 19.1579C16.4418 17.7429 15.8576 15.9022 15.9959 13.8557L15.8314 13.7762C15.6989 14.8508 15.8434 15.9408 16.2516 16.9464C16.6599 17.952 17.3188 18.841 18.1681 19.5321H18.1657ZM32.1643 7.74902C32.0165 8.02734 32.4481 8.14194 32.4505 8.40623L32.1333 8.16065C31.9974 8.6752 32.6245 8.8436 32.8177 9.25055C33.0704 8.49745 32.9345 8.03903 32.1667 7.74902H32.1643ZM14.9397 9.97092C14.5224 9.99431 14.582 9.48678 14.4628 9.20378L14.2577 9.43064L14.52 10.2937L14.7108 10.1627C14.9969 10.3615 15.2639 10.2259 15.3593 9.91478C15.4451 9.93583 15.5238 9.97092 15.5858 9.91011L15.1853 9.10788C15.1018 9.12426 15.0231 9.00965 14.923 9.10087C15.0183 9.35112 15.3617 9.85398 14.9397 9.97092ZM32.0857 6.48604L32.0785 6.51879L31.6803 6.49774C31.8281 6.95381 32.3718 6.73396 32.7175 6.94212C32.5196 6.57492 32.3765 6.21708 31.9188 6.14691C31.9664 5.93174 31.9068 5.72592 31.7685 5.64406C31.7685 5.83584 31.6899 5.97384 31.5086 6.04634C31.4204 6.42523 31.8281 6.40652 32.0857 6.48604ZM31.9664 9.11256L31.9354 9.11724C31.8401 9.52186 32.1286 9.87502 32.3098 10.2165C32.6221 9.67856 32.6102 9.06345 32.1095 8.63544C31.9569 8.92078 32.1691 9.19676 32.2454 9.46807L32.2144 9.47976L31.9664 9.11256ZM31.852 6.83921C32.0308 7.25318 32.3169 7.15495 32.5029 7.42392C32.3456 7.37714 32.2096 7.33036 32.0737 7.28827C32.0666 7.73031 32.6364 7.77474 32.9536 7.94314C32.9011 7.23213 32.5458 6.96083 31.852 6.83921ZM30.2044 6.09312C30.3999 6.09312 30.6813 6.21474 30.8434 6.10481C30.8458 5.50373 30.0899 5.58325 29.6608 5.56922C29.7895 5.79608 29.9516 6.01827 30.2044 6.09312ZM28.0561 14.665L27.5673 14.6299L27.584 14.8427C27.6817 14.8661 27.7652 14.8895 27.8558 14.9082C27.882 15.404 27.6007 15.4134 27.2215 15.2052C27.1071 15.8344 28.1514 15.7712 28.0561 14.6673V14.665ZM27.696 12.6629C27.119 13.3459 27.1143 13.4464 27.9917 13.7388L27.9726 13.5517C27.798 13.5069 27.6315 13.4359 27.4791 13.3412L27.7986 12.9576L27.696 12.6629ZM25.0136 10.1697L25.2783 10.1487C25.3713 9.81421 25.1758 9.77913 24.9397 9.59904C24.8443 9.87503 24.594 10.0107 24.4509 10.2446C24.5492 10.2444 24.6459 10.2204 24.7324 10.1747C24.8189 10.129 24.8926 10.063 24.9469 9.98261L25.0136 10.1697ZM26.3393 11.6853C26.4204 11.4654 26.8544 10.9228 26.6207 10.7521C26.5134 10.8152 26.2869 10.7895 26.3107 10.9532C26.3059 11.1941 26.3083 11.435 26.3083 11.6759L26.3369 11.6853H26.3393ZM30.6479 5.52712L30.6741 5.4897C30.4309 5.1529 30.326 5.08508 29.8968 5.08274C29.904 5.4897 30.3403 5.49203 30.6479 5.52712ZM29.5487 4.5144C29.532 4.80442 29.7824 4.97047 30.1925 4.94942C30.0876 4.65707 29.873 4.50037 29.5487 4.51674V4.5144ZM28.5806 7.51513C28.2468 7.36311 27.9726 7.55489 27.634 7.48473C27.7294 7.93846 28.2874 7.60869 28.583 7.51513H28.5806ZM29.2244 4.05599C29.3103 4.346 29.4271 4.40681 29.7347 4.36705C29.6369 4.12849 29.4772 4.0326 29.222 4.05599H29.2244ZM29.3889 3.9063C29.2697 3.65838 29.2077 3.62564 28.955 3.65137C29.0599 3.89694 29.2101 3.98816 29.3889 3.9063ZM27.8486 11.9589L28.0871 12.3542C28.397 12.3542 28.1348 12.1039 28.0632 11.9964C28.0227 11.9543 27.9345 11.9543 27.8701 11.9332L27.8486 11.9589ZM26.9593 12.3074C27.1166 12.2185 27.2788 12.1507 27.4218 12.0408L27.3265 11.9098C27.1905 12.0385 26.8734 12.0806 26.9569 12.3074H26.9593ZM29.0122 3.50402C29.0575 3.34732 28.8262 3.13682 28.6617 3.19997C28.6832 3.37538 28.8715 3.52741 29.0122 3.50402ZM13.4828 6.19603C13.5687 6.11651 13.4375 5.99021 13.3564 6.06973C13.2706 6.14691 13.3994 6.27555 13.4828 6.19603ZM13.5949 6.42523C13.6807 6.34805 13.552 6.21941 13.4685 6.29894C13.3827 6.37846 13.5114 6.50475 13.5949 6.42523Z" fill="white"/>
<path d="M13.0039 5.38878L12.7988 5.40281L12.9061 5.66476L13.0492 5.50105L13.0778 5.51274L13.0969 5.86123C13.135 6.16528 13.6119 5.97817 13.4211 5.73259L13.1922 5.4683C13.1974 5.46032 13.2014 5.45166 13.2042 5.44257L13.4235 5.46596L13.3162 5.20401L13.1589 5.33031C13.1506 5.32539 13.1418 5.32146 13.1326 5.31862L13.1136 5.06836L12.8513 5.16893L13.0158 5.36305C13.0107 5.3711 13.0067 5.37975 13.0039 5.38878ZM12.4197 6.74999C12.5508 6.75233 12.5532 6.55119 12.4221 6.55119C12.2909 6.54885 12.2886 6.74999 12.4197 6.74999ZM12.3982 7.00726C12.5294 7.01194 12.5318 6.80846 12.3982 6.8108C12.2695 6.80612 12.2671 7.00726 12.3982 7.00726ZM12.8203 6.12785C12.9538 6.12785 12.9562 5.92905 12.825 5.92905C12.6939 5.92671 12.6915 6.12552 12.8227 6.12552L12.8203 6.12785ZM12.5032 6.51376C12.6367 6.51844 12.6391 6.3173 12.5055 6.3173C12.3768 6.31496 12.372 6.5161 12.5055 6.51376H12.5032ZM13.7383 6.75934C13.7311 6.66111 13.805 6.46699 13.805 6.46699L13.3878 6.62837C13.3878 6.62837 13.5785 6.72192 13.6453 6.79676C13.557 6.82717 13.4712 6.84354 13.3496 6.78741L13.5117 7.10081C13.5475 6.96048 13.6214 6.88096 13.6787 6.86927C13.8527 7.13122 13.4164 7.4189 13.2256 7.19671C13.1732 7.10315 13.2375 7.00024 13.3496 7.07976C13.3329 6.88564 13.1589 6.88564 13.1064 7.02831C13.1112 6.82951 13.0587 6.71023 12.8441 6.65176C12.7893 6.85056 12.8584 6.96984 13.0635 7.05404C12.9443 7.04 12.8203 7.14993 12.9776 7.29026C12.9776 7.1663 13.0873 7.14993 13.1446 7.23647C13.2399 7.46801 12.9586 7.55689 12.7273 7.323C12.7797 7.30429 12.8322 7.31131 12.9061 7.32768L12.6868 7.05871C12.6987 7.15227 12.6915 7.22243 12.6701 7.26453C12.6224 7.21074 12.6081 7.16396 12.589 7.06105L12.4221 7.20372C12.6449 7.34989 12.8348 7.53934 12.98 7.76037C13.2709 7.47971 14.4488 7.00492 14.9018 7.01895C14.8507 6.76134 14.8548 6.49611 14.9138 6.24012L14.692 6.24947C14.7516 6.33835 14.7731 6.38045 14.7755 6.45061C14.7117 6.4177 14.6576 6.3694 14.6181 6.31028L14.6491 6.65409C14.692 6.59328 14.7254 6.55119 14.7755 6.53014C14.7755 6.85523 14.5084 6.97685 14.4107 6.74765C14.394 6.64708 14.4822 6.58393 14.5704 6.67514C14.5871 6.46699 14.4178 6.47166 14.3439 6.5582C14.4321 6.36174 14.3963 6.22843 14.2151 6.12084C14.1007 6.30795 14.1484 6.42957 14.2938 6.5699C14.1508 6.49973 14.0268 6.61667 14.1508 6.7687C14.177 6.63772 14.2962 6.66813 14.3224 6.77104C14.3463 7.06105 13.8217 7.14057 13.7669 6.83418C13.8146 6.80612 13.9266 6.81547 14.0482 6.89499L13.9457 6.5582C13.8956 6.67982 13.8241 6.72426 13.7383 6.76168V6.75934ZM19.2461 17.373L19.7397 17.6467C19.3463 18.1121 20.0521 18.3109 20.0139 17.8595C20.2762 17.9694 21.3134 18.2781 20.8961 17.6771C19.537 17.7215 18.8456 16.3369 19.5967 15.2774C20.0545 15.4809 21.6615 14.7231 21.528 15.4949C21.6114 15.5791 21.6353 15.5885 21.826 15.5885C22.291 14.55 20.6911 14.8588 20.1164 14.9804C19.6038 15.1277 19.1341 14.4003 18.6811 14.8003C18.5022 14.9546 18.6191 15.2985 18.8623 15.3101C19.0769 15.3148 19.1412 15.0248 18.9481 14.9359C19.3701 14.7956 19.1675 15.4552 19.0149 15.6236C18.5308 15.3803 18.4498 16.1381 18.929 15.9393C18.9505 16.075 18.9576 16.2083 18.9243 16.3369C18.3997 16.227 18.5404 16.9567 18.9314 16.6643C19.0435 16.7672 19.0983 16.9286 19.1102 17.0853C18.5857 17.1555 19.0053 17.8104 19.2485 17.373H19.2461Z" fill="white"/>
<path d="M20.7648 18.1638L20.6933 18.1404C20.6551 18.234 20.5979 18.4117 20.6861 18.4702L21.1272 18.655L21.69 18.2433L21.8426 16.0425L21.6756 16.0542C21.6303 16.0589 21.3228 18.5989 21.163 18.4492C21.194 18.2808 21.5683 16.0542 21.5683 16.0542L21.4014 16.0308L21.3824 16.1477L20.7577 15.3525L20.6766 15.39L21.3442 16.2436L21.3013 16.3957C21.2393 16.3559 20.5955 15.4882 20.5311 15.4063L20.4 15.397L21.2679 16.4962L21.2202 16.6436L20.2474 15.4017H20.1234L21.1773 16.7488L21.1225 16.943L19.9637 15.4157L19.8111 15.418L21.0915 17.0599L21.0438 17.2119L19.6322 15.418L19.6084 15.5584C19.6084 15.5584 20.9222 17.2376 21.0033 17.3476C20.9365 17.5534 20.9889 17.5721 21.0819 17.7428C21.1296 17.9346 20.9961 18.2317 20.7624 18.1615L20.7648 18.1638Z" fill="white"/>
<path d="M20.8982 17.4645L19.5439 15.722C19.5439 15.722 19.5201 15.8062 19.5057 15.8413L20.8028 17.5089L20.8982 17.4645ZM19.5415 16.3114C19.8515 16.695 20.1614 17.0879 20.4643 17.4762C20.5119 17.4808 20.5954 17.4995 20.5954 17.4995L19.4914 16.0775C19.4914 16.0775 19.4724 16.2225 19.5391 16.3114H19.5415ZM21.8997 15.6636C21.7494 15.6519 21.5897 15.6215 21.4466 15.6074C21.1605 15.8483 21.48 15.9863 21.6922 15.9676C21.8758 16.0144 22.119 15.7805 21.8997 15.6636ZM21.8543 21.8779C21.809 22.0743 22.1285 22.1375 22.1667 21.9387C22.212 21.7422 21.8925 21.6814 21.8543 21.8779ZM22.1429 20.6967C22.1953 20.4535 21.7995 20.374 21.7518 20.6196C21.697 20.8628 22.0928 20.9423 22.1405 20.6967H22.1429ZM20.7909 20.0442C20.8458 19.8033 20.45 19.7238 20.4023 19.9694C20.3474 20.2126 20.7432 20.2921 20.7909 20.0465V20.0442ZM22.9631 22.4322C22.8033 23.3116 22.3718 23.7092 21.9855 23.7092C21.604 23.7092 21.17 23.3116 21.0079 22.4322C21.058 22.4766 21.1057 22.5351 21.1605 22.6052L21.2439 22.7105L21.3632 22.6403C21.4109 22.6099 21.4609 22.5842 21.5062 22.5678C21.4562 22.6684 21.4371 22.79 21.4633 22.914C21.4829 23.0376 21.5461 23.1506 21.642 23.2331C21.7379 23.3156 21.8603 23.3624 21.9879 23.3654C22.2454 23.3654 22.46 23.1783 22.5124 22.914C22.5363 22.79 22.5172 22.6684 22.4647 22.5678C22.5124 22.5842 22.5601 22.6099 22.6102 22.638L22.7294 22.7105L22.8129 22.6052C22.8677 22.5351 22.913 22.4766 22.9631 22.4322ZM23.1514 22.1936C22.9249 22.217 22.8105 22.362 22.6913 22.514C22.5799 22.4405 22.4508 22.397 22.3169 22.3877C22.2454 22.3877 22.181 22.4064 22.1214 22.4509C22.5339 22.6099 22.3861 23.2157 21.9855 23.2157C21.5849 23.2157 21.4371 22.6099 21.8496 22.4509C21.7924 22.4041 21.7256 22.3877 21.6541 22.3877C21.5201 22.3968 21.391 22.4404 21.2797 22.514C21.1605 22.362 21.046 22.2146 20.8195 22.1936C20.9435 23.3022 21.4633 23.8565 21.9855 23.8565C22.5053 23.8565 23.0275 23.3022 23.1514 22.1936ZM19.4247 19.2864C19.5987 19.0853 18.9931 18.8233 18.9049 18.7111C18.8334 18.669 18.7427 18.6783 18.6951 18.7391C18.5234 18.9309 19.1171 19.1975 19.1982 19.3051C19.2721 19.3613 19.3746 19.3519 19.4271 19.2864H19.4247Z" fill="white"/>
<path d="M19.3485 19.7164C20.0161 19.7164 19.9303 18.6874 19.2722 18.7973C19.5774 18.9587 19.8445 19.382 19.3676 19.506C19.1888 19.541 19.0052 19.3539 18.874 19.2627C18.8788 19.513 19.0886 19.7164 19.3509 19.7164H19.3485Z" fill="white"/>
<path d="M18.3998 19.8871C18.5453 20.1584 19.406 20.8951 19.6397 20.5466C19.22 20.3408 18.5095 19.8333 18.7813 19.1854C18.1638 18.8182 18.7098 18.2312 19.1914 18.7294C19.7017 18.423 20.2716 18.6428 20.777 18.9819C20.9582 18.6031 20.076 18.3388 19.871 18.2265C19.6135 18.1423 18.7956 18.3201 18.5214 18.3341C18.3354 18.3575 18.2019 18.5189 18.2186 18.6989C18.2591 18.8931 18.252 19.7327 18.3998 19.8871ZM25.975 5.34884L26.3565 5.46578C26.067 4.86038 25.6459 4.3245 25.1228 3.89579C24.5996 3.46709 23.9871 3.15596 23.3283 2.98427C23.2949 3.06847 23.2663 3.16202 23.2401 3.25792C24.4037 3.54325 25.386 4.31039 25.975 5.34884ZM18.128 5.46812L18.5095 5.35118C18.7952 4.83739 19.1854 4.38654 19.6558 4.0265C20.1262 3.66646 20.6668 3.40487 21.2444 3.25792C21.2158 3.16202 21.1871 3.07081 21.1538 2.98427C20.4947 3.15621 19.8821 3.4677 19.3589 3.89682C18.8357 4.32595 18.4148 4.86228 18.1256 5.46812H18.128ZM25.1047 3.47777C25.3765 3.48244 25.3765 3.06847 25.1047 3.07081C24.8328 3.06847 24.8328 3.48244 25.1047 3.47777ZM24.1461 2.94685C24.4156 2.95153 24.4156 2.53755 24.1461 2.53989C23.8719 2.53755 23.8719 2.95153 24.1461 2.94685ZM23.6216 2.76442C23.8958 2.76676 23.8958 2.35278 23.6216 2.35746C23.3522 2.35278 23.3522 2.76676 23.6216 2.76442ZM24.6397 3.18541C24.9115 3.19009 24.9115 2.77611 24.6397 2.78079C24.3679 2.77611 24.3679 3.19009 24.6397 3.18541ZM25.5339 3.8169C25.8057 3.82158 25.8057 3.40526 25.5339 3.40994C25.2644 3.40526 25.2644 3.82158 25.5339 3.8169ZM26.6211 5.34416C26.6164 5.60845 27.0455 5.60845 27.0408 5.34416C27.0455 5.08221 26.6164 5.08221 26.6211 5.34416ZM26.3684 4.86704C26.3636 5.13133 26.7904 5.13133 26.788 4.86704C26.7904 4.60275 26.3636 4.60275 26.3684 4.86704ZM25.9249 4.19813C26.1967 4.20047 26.1967 3.78649 25.9249 3.79117C25.6531 3.78649 25.6531 4.20047 25.9249 4.19813ZM26.0656 4.4133C26.0608 4.67759 26.4876 4.67759 26.4852 4.4133C26.4876 4.15135 26.0608 4.15135 26.0656 4.4133ZM19.3774 3.47777C19.6492 3.48244 19.6492 3.06847 19.3774 3.07081C19.1056 3.06847 19.1056 3.48244 19.3774 3.47777ZM18.9482 3.8169C19.22 3.82158 19.22 3.40526 18.9482 3.40994C18.6764 3.40526 18.6764 3.82158 18.9482 3.8169ZM17.6511 5.54764C17.9229 5.55232 17.9229 5.13834 17.6511 5.14302C17.3793 5.13834 17.3793 5.55232 17.6511 5.54764ZM19.8424 3.18541C20.1142 3.19009 20.1142 2.77611 19.8424 2.78079C19.5729 2.77611 19.5729 3.19009 19.8424 3.18541ZM18.2091 4.61678C18.4809 4.62146 18.4809 4.20749 18.2091 4.21216C17.9373 4.20749 17.9373 4.62146 18.2091 4.61678ZM17.9063 5.07052C18.1781 5.0752 18.1781 4.65888 17.9063 4.66356C17.6344 4.65888 17.6344 5.0752 17.9063 5.07052ZM20.8605 2.76442C21.1323 2.76676 21.1323 2.35278 20.8605 2.35746C20.5887 2.35278 20.5887 2.76676 20.8605 2.76442ZM18.5572 4.19813C18.829 4.20047 18.829 3.78649 18.5572 3.79117C18.2854 3.78649 18.2854 4.20047 18.5572 4.19813ZM20.3383 2.94685C20.6101 2.95153 20.6101 2.53755 20.3383 2.53989C20.0665 2.53755 20.0665 2.95153 20.3383 2.94685ZM22.6011 4.83663H22.88C22.88 3.97828 23.0088 3.23453 23.2377 2.74337C23.3164 2.58667 23.0589 2.46973 22.985 2.63111C22.6512 3.33977 22.6035 4.31507 22.6035 4.83663H22.6011ZM21.602 4.83663H21.881C21.881 4.31507 21.8309 3.33977 21.4971 2.63111C21.4232 2.46973 21.1633 2.58433 21.242 2.74337C21.4733 3.23453 21.5996 3.97828 21.5996 4.83663H21.602ZM22.241 4.83196C22.5367 4.83663 22.5367 4.38758 22.241 4.39225C21.9478 4.38758 21.9478 4.83663 22.241 4.83196ZM22.241 4.27999C22.5367 4.28467 22.5367 3.83561 22.241 3.84029C21.9478 3.83561 21.9478 4.28467 22.241 4.27999ZM22.241 3.72802C22.5367 3.7327 22.5367 3.28364 22.241 3.28832C21.9478 3.28364 21.9478 3.7327 22.241 3.72802ZM22.0813 3.19009C22.1767 3.14097 22.3054 3.14097 22.4032 3.19009C22.7274 2.70361 21.7546 2.70361 22.0813 3.19009Z" fill="white"/>
<path d="M22.4222 2.72672C22.6749 2.26831 21.807 2.27065 22.0621 2.72672C22.1167 2.69638 22.1783 2.68043 22.241 2.68043C22.3037 2.68043 22.3653 2.69638 22.4198 2.72672H22.4222Z" fill="white"/>
<path d="M22.1051 0.872388C22.0669 1.15305 21.9143 1.37056 21.7259 1.40564V1.47581H22.0955C22.0776 1.48932 22.0616 1.50505 22.0478 1.52259C21.3921 1.66292 21.3254 2.63587 21.9525 2.86508C21.7069 2.63354 21.8952 2.19383 22.241 2.20553C22.5867 2.19383 22.7751 2.63354 22.5295 2.86508C23.159 2.63587 23.0898 1.66292 22.4341 1.52025C22.4204 1.50328 22.4044 1.48832 22.3864 1.47581H22.756V1.40564C22.5652 1.37056 22.415 1.15305 22.3793 0.872388C22.6678 0.907471 22.8943 1.05482 22.9277 1.23725H23.0016V0.238562H22.9301C22.8943 0.420992 22.6678 0.568339 22.3793 0.60576C22.415 0.325099 22.5676 0.105248 22.756 0.0725041V0H21.7259V0.0701653C21.9167 0.105248 22.0669 0.32276 22.1051 0.60576C21.8142 0.568339 21.59 0.420992 21.5567 0.238562H21.4804V1.23725H21.5543C21.59 1.05482 21.8142 0.907471 22.1027 0.872388H22.1051ZM31.1895 16.5099H31.1919L31.1251 16.3953C31.1323 16.4421 31.1537 16.4842 31.1895 16.5099ZM31.0178 16.9332C30.7269 16.7555 30.5648 17.539 30.4575 17.6723C30.405 17.7869 30.4503 17.9109 30.5576 17.9459L30.3431 18.3786C30.2286 18.3599 30.1285 18.4464 30.1285 18.5751C30.1714 18.7435 29.9973 19.4755 30.3049 19.4849V19.686C29.5657 19.817 29.6754 20.9467 30.436 20.928C31.1919 20.9467 31.3087 19.8264 30.5791 19.6884V19.4942C30.6936 19.513 30.7937 19.4288 30.7937 19.2978C30.7532 19.1341 30.9105 18.4301 30.6387 18.3927L30.8032 18.0629C31.0798 18.2079 31.242 17.4454 31.3469 17.3144C31.3946 17.2092 31.3588 17.0876 31.261 17.0478L31.385 16.7999C31.3516 16.7531 31.2801 16.6502 31.211 16.5426L31.0178 16.9332ZM30.8795 20.3012C30.7007 21.3069 29.3678 20.3105 30.3216 19.8848C30.3669 19.9831 30.5171 19.9877 30.56 19.8895C30.746 19.941 30.8795 20.107 30.8795 20.3012ZM30.5767 19.2721C30.5958 19.1271 30.4027 19.0475 30.3264 19.1691C30.3478 19.1154 30.2739 18.5681 30.3788 18.5681C30.4217 18.5985 30.479 18.6055 30.5266 18.5704C30.56 18.5774 30.5839 18.6078 30.5839 18.6453V19.237L30.5767 19.2721ZM31.1394 17.277C31.1061 17.3121 30.901 17.8851 30.8295 17.8617C30.8032 17.815 30.7389 17.7846 30.684 17.8009C30.653 17.7869 30.6411 17.7448 30.6578 17.7074C30.6959 17.6676 30.8891 17.0829 30.9773 17.1227C31.0011 17.1788 31.0727 17.2162 31.1299 17.1998C31.1466 17.2186 31.1514 17.249 31.137 17.277H31.1394ZM16.2014 15.6656L16.2657 15.9111L17.4222 15.7708L17.3649 15.551C17.3077 15.5393 16.5876 15.6679 16.5876 15.6679C16.5876 15.6679 17.2719 14.8914 17.2553 14.8002L16.0869 14.9288L16.1108 15.123L16.7975 15.0294C16.7975 15.0294 16.2276 15.6539 16.2014 15.6656ZM16.6115 17.104C17.1718 17.6232 18.0492 16.7929 17.4698 16.2596C16.9119 15.7334 16.0202 16.5707 16.6115 17.104ZM16.6782 16.5263C16.9238 16.0936 17.7393 16.3508 17.4007 16.842C17.148 17.2607 16.3468 17.0244 16.6782 16.5263ZM17.3888 18.3295L17.5843 18.5915C17.8445 18.3063 18.1652 18.0804 18.5237 17.9296L18.3282 17.6676C18.2265 17.798 18.1012 17.909 17.9586 17.9951L17.6582 17.5928C17.7846 17.4992 17.9515 17.3823 18.0922 17.3519L17.8966 17.0899C17.6362 17.3742 17.3156 17.5993 16.9572 17.7495L17.1527 18.0114C17.2547 17.8826 17.38 17.7732 17.5223 17.6887L17.8204 18.0909C17.694 18.1822 17.5295 18.2968 17.3888 18.3295ZM17.2791 14.4166L17.2934 14.1781C16.9644 14.2389 16.4326 14.2365 16.1036 14.1757L16.0869 14.4143C16.4183 14.3558 16.9501 14.3558 17.2791 14.4166ZM25.6625 19.2627C26.3707 18.961 26.2109 18.2804 25.4146 18.5915C25.0808 18.4979 25.5028 18.1705 25.7245 18.2406L25.7293 18.2383L25.5624 18.0465C25.312 18.1518 24.9115 18.4792 25.1237 18.7575C25.2715 18.9399 25.5695 18.7458 25.7651 18.7482C26.0893 18.8043 25.7412 19.1317 25.5409 19.113L25.5362 19.1177M27.601 16.8794L27.8013 16.2199C27.6988 16.2269 26.7808 15.9673 26.6997 15.9088L26.509 16.5356L26.6997 16.6947L26.7045 16.6923C26.6902 16.5473 26.7117 16.3836 26.7641 16.2035L27.1146 16.3017C27.0789 16.4 27.0192 16.6245 26.9716 16.683L27.1432 16.7064L27.2553 16.3415L27.5891 16.435C27.5486 16.5567 27.4937 16.6526 27.4222 16.7204L27.601 16.8794ZM27.1361 17.7588L27.2458 17.5553L26.3397 16.966L26.2396 17.1507C26.2753 17.1928 26.8643 17.532 26.8643 17.532C26.8643 17.532 25.8914 17.6559 25.8461 17.7284L26.7522 18.3318L26.8571 18.1822L26.3135 17.8407C26.3135 17.8407 27.1098 17.7518 27.1361 17.7588ZM24.6373 19.9152L25.2667 19.5597C25.1857 19.5013 24.6945 18.7224 24.6778 18.6265L24.0817 18.9633L24.1055 19.2019H24.1103C24.2057 19.085 24.3392 18.982 24.5109 18.8838L24.6969 19.1808C24.5991 19.2276 24.3917 19.3539 24.313 19.3656L24.4227 19.4966L24.7708 19.3001L24.9496 19.5808C24.8304 19.6463 24.7231 19.679 24.6206 19.6837L24.6373 19.9152ZM17.6105 12.1854C17.4198 12.0404 17.1813 12.2976 16.9906 12.3397C16.6615 12.3584 16.9191 11.9632 17.1193 11.9351V11.9281L16.962 11.8135C16.6663 11.9608 16.4398 12.5853 16.9191 12.5993C17.0216 12.604 17.2815 12.4286 17.3673 12.4099C17.5915 12.3678 17.5199 12.6625 17.3864 12.7327C17.4532 12.728 17.5223 12.721 17.5867 12.7373C17.7131 12.5666 17.7917 12.3163 17.6105 12.183V12.1854ZM17.8418 11.8486C17.3172 11.8158 17.2076 10.9364 17.8418 11.0674V10.8546C17.0192 10.8078 17.0311 12.0754 17.8418 12.0474V11.8486ZM19.1484 10.2886H19.5109L19.2629 9.905C19.3893 9.83483 19.6563 9.72958 19.7755 9.7366L19.4894 9.5261L18.6143 10.0336L18.7145 10.3611H18.7193C18.7908 10.2278 18.8957 10.1178 19.0125 10.057L19.1461 10.2886H19.1484ZM21.7069 10.1412L21.7093 10.1459C21.5352 10.2816 21.3111 10.2254 21.1251 10.1295C20.5767 10.4266 19.9901 9.72958 20.4265 9.28286C20.889 8.74961 21.8022 9.35303 21.3611 9.94242C21.5042 10.05 21.621 10.1155 21.7069 10.1412ZM21.0392 9.97048C21.478 9.80443 21.0965 9.14487 20.7078 9.30158C20.2739 9.46296 20.6482 10.1272 21.0392 9.97048ZM21.8714 9.66877C21.869 9.48634 21.8952 9.16358 21.8142 9.00688H22.2052C22.1408 9.17528 22.0288 9.95645 22.3626 9.91903C22.4937 9.91903 22.6249 9.83015 22.6201 9.69684C22.6153 9.50973 22.6439 9.16592 22.5629 9.00454H22.9539C22.8622 9.36702 22.8622 9.74599 22.9539 10.1085H22.6201C22.6272 10.0851 22.632 10.05 22.632 9.99855C22.2934 10.2324 21.838 10.1155 21.869 9.66877H21.8714ZM23.5238 10.2114C23.5929 9.94008 23.6907 9.47933 23.8456 9.25012L23.5428 9.15189C23.5452 9.44191 23.3855 9.89564 23.2829 10.174L23.5238 10.2114ZM25.3716 13.8857H25.5624V10.9037H22.725V13.8857H25.3716ZM22.8228 12.5268V12.5549C22.8275 12.4988 22.9205 12.5409 22.8752 12.5783L22.8895 12.5923C22.9849 12.604 22.9968 12.466 22.9014 12.4614V12.459L23.0159 12.4122V12.3772L22.9014 12.3304V12.3257C22.9968 12.321 22.9825 12.1854 22.8895 12.1947L22.8752 12.2088C22.9229 12.2485 22.8275 12.2883 22.8228 12.2321V12.2672V11.0814H22.9181V10.9926H23.972C24.0316 11.0019 23.9816 11.0791 23.9434 11.0393L23.9291 11.0534C23.9172 11.1422 24.0722 11.1469 24.0722 11.058L24.1294 11.168H24.1652L24.2176 11.058C24.2176 11.1493 24.3726 11.1422 24.3607 11.0534L24.3488 11.0393C24.3106 11.0791 24.2605 11.0019 24.3201 10.9926H25.374V11.0814H25.4694C25.4599 11.0604 25.5076 12.5362 25.4193 12.2088L25.405 12.1947C25.3097 12.1854 25.2977 12.321 25.3931 12.328L25.2787 12.3795V12.4122L25.3931 12.459V12.4614C25.2977 12.466 25.312 12.6017 25.405 12.5923L25.4193 12.5783C25.5076 12.2438 25.4599 13.7524 25.4694 13.7103H25.374V13.7992H24.3201C24.2605 13.7898 24.3082 13.7103 24.3488 13.7524L24.3631 13.7384C24.375 13.6495 24.2224 13.6401 24.22 13.729H24.2176L24.1628 13.6238H24.127L24.0745 13.729H24.0722C24.0674 13.6401 23.9196 13.6495 23.9291 13.7384L23.9434 13.7501C23.9839 13.7103 24.0316 13.7898 23.9696 13.7968H22.9205V13.7103H22.8228V12.5268Z" fill="white"/>
<path d="M25.9819 14C25.9843 13.9391 25.9127 13.8924 25.8531 13.9134V13.9275C25.7387 14.4186 25.7935 12.3932 25.784 12.468L25.8889 12.5101V12.2739L25.784 12.316V10.8215C25.8007 10.7466 25.9199 10.8121 25.8555 10.8589V10.8729C25.9962 10.9174 26.0367 10.6975 25.8841 10.6952L25.9795 10.5361L25.9556 10.5127C25.9556 10.5127 25.7887 10.6063 25.7864 10.604C25.784 10.4683 25.5479 10.501 25.5908 10.6344H25.6051C25.6552 10.5736 25.7291 10.6811 25.6481 10.6952H24.2294L24.2723 10.6016H24.0148L24.0601 10.6952H22.6438C22.5579 10.6835 22.6295 10.5736 22.6819 10.632H22.6962C22.7439 10.501 22.5031 10.4683 22.5007 10.604L22.329 10.5151L22.3052 10.5361L22.4006 10.6952C22.2503 10.6952 22.2909 10.9174 22.4339 10.8729V10.8589C22.5436 10.3677 22.4912 12.3838 22.5007 12.3137L22.4006 12.2739V12.5078L22.5007 12.4704C22.4912 12.4329 22.5436 14.4069 22.4339 13.9275V13.9134C22.2909 13.8713 22.2503 14.0888 22.4006 14.0912L22.3052 14.2502L22.329 14.2736C22.3314 14.2736 22.4983 14.18 22.5007 14.1824C22.5007 14.3204 22.7415 14.2853 22.6962 14.1543H22.6819C22.6581 14.1847 22.6008 14.1684 22.6008 14.1309C22.6008 14.1099 22.6175 14.0935 22.639 14.0912H24.0601L24.0148 14.1847H24.2723L24.227 14.0912H25.6457C25.6671 14.0935 25.6838 14.1099 25.6838 14.1309C25.6838 14.1684 25.6266 14.1847 25.6028 14.1543H25.5885C25.5432 14.2853 25.7816 14.318 25.784 14.1824L25.9533 14.2713L25.9771 14.2502L25.8817 14.0912C25.9366 14.0912 25.9819 14.0514 25.9819 14ZM24.2651 10.7864H25.6862V14.0023H22.6008V10.7887H24.2651V10.7864ZM22.825 12.5592V12.5546V12.5569V12.5592ZM12.5698 6.90391L12.6366 6.85012C12.6464 6.71823 12.6852 6.58999 12.7502 6.47415C12.8152 6.35831 12.905 6.25759 13.0133 6.17887C12.9997 6.1604 12.9854 6.14246 12.9704 6.12508C12.8475 6.21635 12.7475 6.33398 12.6781 6.46897C12.6087 6.60395 12.5716 6.75273 12.5698 6.90391ZM13.235 6.518L13.2994 6.49461C13.2408 6.32228 13.1476 6.16322 13.0252 6.02684C12.9942 5.99644 12.9441 6.04322 12.9751 6.07362C13.0705 6.16717 13.1635 6.32388 13.235 6.518ZM12.6413 6.30049C12.7725 6.30283 12.7749 6.10169 12.6413 6.10169C12.5126 6.10169 12.5078 6.30049 12.6413 6.30049ZM14.5774 5.87482C14.4868 5.96837 14.3366 5.83038 14.4296 5.73917C14.5178 5.64561 14.668 5.78594 14.5774 5.87482ZM14.7801 6.04088C14.6895 6.13443 14.5417 5.9941 14.6347 5.90289C14.7229 5.80933 14.8731 5.94966 14.7801 6.04088ZM13.8359 5.71812C13.7453 5.81167 13.5975 5.67134 13.6881 5.58013C13.7787 5.48657 13.9265 5.6269 13.8359 5.71812ZM14.3462 5.76957C14.2555 5.86313 14.1053 5.72279 14.1983 5.63158C14.2865 5.53803 14.4368 5.67836 14.3462 5.76957ZM14.5846 6.08765L14.4988 6.09701C14.395 6.01096 14.2736 5.94766 14.1428 5.91136C14.0121 5.87505 13.8749 5.86658 13.7405 5.88651L13.731 5.81869C14.0314 5.77191 14.3438 5.87248 14.587 6.08765H14.5846ZM13.8168 6.2771L13.7572 6.30984C13.6714 6.14856 13.6195 5.97198 13.6046 5.79062C13.6046 5.74618 13.6738 5.74384 13.6738 5.78594C13.6738 5.91692 13.7262 6.09233 13.8168 6.2771ZM14.091 5.71344C14.0004 5.80699 13.8526 5.669 13.9432 5.57779C14.0338 5.48423 14.184 5.62456 14.091 5.71344ZM25.0281 16.3154C25.3214 16.3107 26.0057 15.9973 25.5098 15.7354C25.2308 15.6886 24.9542 15.8219 24.6872 15.8827C23.6094 16.299 24.2413 15.7892 23.5737 15.8453C23.7978 16.3996 24.3677 16.1143 24.7945 15.9856C24.8088 16.0464 24.7301 16.0605 24.7396 16.1213L25.1545 16.0371C25.2141 15.7658 25.7267 15.7634 25.4907 16.0371C24.9018 16.285 24.2055 16.2382 23.5904 16.409C23.1779 17.4568 22.4602 16.7434 22.4673 17.0451C22.3052 17.0592 22.3076 17.2088 22.4721 17.1972C22.4769 17.5012 23.2708 17.1504 23.4187 17.0568L23.5212 16.8463C23.762 16.9586 23.9337 16.6218 24.1411 16.561C24.351 16.5212 24.6228 16.3224 24.8016 16.5049C24.9995 16.7177 25.2952 16.3949 25.4692 16.6078C25.4049 16.7738 25.4907 16.7013 25.5193 16.8042C25.5193 16.8978 25.6767 16.8978 25.6791 16.8042C25.6791 16.7621 25.6838 16.7364 25.7267 16.72C25.815 16.5891 25.6266 16.4464 25.5598 16.3365C25.4168 16.2008 25.1736 16.4604 25.0281 16.3154Z" fill="white"/>
<path d="M22.365 15.8549C22.4127 15.8713 22.396 15.9251 22.4175 15.9531C22.6726 15.9695 22.9254 15.9064 23.1805 15.8736C23.3713 15.8736 23.3665 15.7099 23.5072 15.6865C23.8434 15.7052 24.0556 15.4152 24.3727 15.3684C24.6278 15.2983 24.9712 15.2047 25.1977 15.3801C25.2525 15.4386 25.3312 15.4503 25.4123 15.4362C25.5196 15.4175 25.6507 15.3941 25.7055 15.5158L25.6436 15.5789L25.6817 15.6538C25.7342 15.6514 25.7413 15.6912 25.7628 15.7239C25.7914 15.7707 25.8581 15.7707 25.8701 15.7239C25.882 15.6654 25.944 15.6959 25.9654 15.6444C25.9726 15.4947 25.9416 15.3053 25.7842 15.2304C25.7079 15.1603 25.4027 15.3029 25.3956 15.1579C25.6221 15.207 26.0537 14.9217 25.7556 14.7369C25.2525 14.62 24.6993 14.8585 24.1867 14.9147C23.9864 14.9591 24.0866 14.6387 23.6407 14.7276C23.9268 15.3053 24.5467 14.896 25.0236 14.8913C25.0284 14.9427 24.933 14.9381 24.9569 15.0036C25.0951 14.9615 25.3336 15.034 25.4123 14.8983C25.4552 14.7346 25.8128 14.7744 25.7079 14.9638C25.4409 15.1275 25.0403 15.0527 24.7256 15.0878C24.3417 15.1182 23.922 15.1275 23.5596 15.2585C23.4881 15.476 23.3903 15.6982 23.1304 15.7496C22.9516 15.5812 22.6893 15.7824 22.4962 15.6093C22.4342 15.621 22.4223 15.6561 22.396 15.7029C22.3007 15.7403 22.2697 15.7917 22.3674 15.8549H22.365ZM25.2048 17.3775C24.6993 17.3167 24.7756 17.6535 24.5277 17.5739C24.573 17.5202 24.6946 17.4897 24.6564 17.4102C24.2868 17.5646 23.8982 17.6769 23.531 17.8382C23.3426 18.0324 23.4046 18.4159 22.9826 18.451C22.9683 18.6522 22.6774 18.7878 22.4986 18.6966C22.427 18.7621 22.458 18.7808 22.47 18.8416C22.408 18.8954 22.3269 19.017 22.458 19.017C22.4986 19.0077 22.5296 18.9468 22.5725 18.9679L22.563 19.0498C22.5987 19.0498 22.6464 19.0591 22.6583 19.0451C22.7156 18.9749 22.799 19.0334 22.8634 18.9772C23.0804 18.8369 23.3903 18.7059 23.3736 18.4112C23.7551 18.2475 23.9793 17.6464 24.4776 17.8569C24.7256 17.9879 24.7923 17.5997 25.0141 17.5903C25.0761 17.733 25.1047 17.7213 25.1858 17.6745C25.324 17.7774 25.3002 17.6137 25.355 17.5389C25.3622 17.464 25.2835 17.3775 25.2048 17.3798V17.3775Z" fill="white"/>
<path d="M22.9251 15.0225C22.844 15.2446 22.9251 15.5393 23.1397 15.6633C23.264 15.6047 23.3635 15.5052 23.421 15.3822C23.4784 15.2592 23.4903 15.1204 23.4544 14.9897C23.5116 14.9429 23.5831 14.9195 23.5617 14.8377C23.5235 14.7488 23.3781 14.8143 23.3423 14.7114C23.2493 14.5898 23.1277 14.688 23.0562 14.7699C22.999 14.7769 22.9441 14.7488 22.8917 14.7745C22.8392 14.8681 22.9871 14.9266 22.9251 15.0225ZM22.8607 18.1378C23.0991 18.6898 23.4568 17.9881 23.3662 17.6911C23.5307 17.5601 23.4854 17.4806 23.2875 17.4689C23.216 17.3239 23.0657 17.3098 22.9632 17.4315C22.9251 17.4759 22.8726 17.4595 22.8249 17.4642C22.7224 17.511 22.7772 17.6186 22.8678 17.642C22.8201 17.8104 22.7939 17.9764 22.8607 18.1401V18.1378ZM23.514 16.0936C23.4663 16.0679 23.4091 16.0656 23.359 16.0703C23.2732 15.8574 23.1206 15.9369 22.999 16.0656C22.8154 15.9954 22.8416 16.1545 22.9394 16.241C22.8488 16.4585 22.9108 16.7836 23.1492 16.8772C23.4019 16.7743 23.4711 16.4796 23.4544 16.2387C23.5331 16.227 23.5975 16.1404 23.514 16.0936ZM25.319 16.8163C24.8659 16.669 24.1578 17.6209 23.8573 17.3402C23.7858 17.1859 23.5617 17.2046 23.421 17.2467C23.5879 17.3636 23.6833 17.6256 23.9408 17.5391C24.2293 17.4853 24.4582 17.2584 24.7086 17.1531C24.7157 17.235 24.6299 17.2701 24.5941 17.3473C24.7658 17.2935 24.9208 17.2467 25.0471 17.1414C25.0257 16.6807 25.7052 17.0011 25.0543 17.2865C25.1711 17.2888 25.2498 17.3402 25.3285 17.2467C25.4787 17.1181 25.4859 16.931 25.319 16.814V16.8163ZM24.2937 17.8829C24.1602 17.9133 24.029 17.925 23.9456 18.0559L24.0457 18.1846C23.9813 18.3436 23.8192 18.3179 23.6642 18.3249L23.6976 18.4348C23.6332 18.4699 23.607 18.526 23.6213 18.6032L23.6785 18.6219C23.7214 18.5705 23.7977 18.519 23.8168 18.6149C23.9548 18.5776 24.0839 18.514 24.1969 18.4277C24.3098 18.3414 24.4043 18.2342 24.4749 18.1121C24.3916 18.0561 24.3282 17.9759 24.2937 17.8829Z" fill="white"/>
<path d="M23.9284 16.9329C23.8688 16.9329 23.8569 17.0054 23.8974 17.0405C23.9356 17.0826 23.9761 17.0358 24.0214 17.0475L24.0238 17.113C24.267 17.127 24.6318 16.9166 24.7629 16.7271L24.6103 16.5002C24.4792 16.5423 24.329 16.5377 24.2527 16.6546L24.3862 16.7926C24.2956 16.8394 24.1955 16.9212 24.0977 16.844C24.0572 16.809 23.9475 16.8253 23.9761 16.8908C23.9785 16.9025 23.9737 16.9142 23.9713 16.9282L23.9284 16.9329ZM22.8984 18.3643C22.8078 18.1936 22.6671 18.0392 22.6027 17.8614C22.6814 17.7515 22.6456 17.6135 22.4954 17.7024C22.4596 17.6276 22.4024 17.6135 22.3333 17.6322C22.3142 17.679 22.3023 17.7258 22.3571 17.7609L22.3547 17.7843L22.307 17.7983C22.2689 17.8919 22.3643 17.9456 22.3977 18.0181C22.5026 18.1819 22.6575 18.5678 22.8984 18.3643ZM22.8984 15.5647C22.8841 15.3308 22.6051 15.1788 22.6885 14.9426C22.7124 14.8981 22.7052 14.8467 22.6575 14.8116C22.6337 14.8187 22.6086 14.8207 22.5839 14.8175C22.5593 14.8142 22.5356 14.8059 22.5145 14.7929C22.4096 14.7438 22.3953 14.856 22.4048 14.9285L22.3357 14.9589C22.4072 15.1601 22.6266 15.6676 22.8984 15.5647ZM22.3571 16.3622C22.4596 16.5143 22.4883 16.7575 22.6647 16.844C22.7434 16.844 22.8674 16.9142 22.9151 16.823C22.8626 16.6429 22.6313 16.5377 22.6647 16.3318C22.6766 16.2827 22.6575 16.2336 22.617 16.1915C22.5264 16.2149 22.3404 16.0208 22.4072 16.2547C22.3523 16.2734 22.319 16.3108 22.3595 16.3622H22.3571ZM18.3561 11.6588C18.3943 11.6612 18.4324 11.6191 18.473 11.6588L18.4611 11.7173C18.7066 11.8226 18.9785 11.7056 19.2241 11.6401C19.3194 11.6121 19.3743 11.5162 19.4792 11.5185C19.7319 11.5372 19.875 11.3314 20.092 11.2729C20.359 11.2215 20.6308 11.1794 20.9027 11.1864C21.2174 11.6027 21.2746 11.2495 21.556 11.3899L21.5321 11.5138L21.6037 11.5372C21.5774 11.6401 21.7348 11.7009 21.7563 11.57C21.761 11.5536 21.7515 11.5349 21.7753 11.5302C21.9422 11.4437 21.6847 11.0133 21.5083 11.1256C21.4177 11.1677 21.2985 11.2074 21.2269 11.1022C21.3843 11.0414 21.5774 11.0554 21.6823 10.9151C21.7634 10.8215 21.7539 10.6344 21.6037 10.583C21.2102 10.4777 20.793 10.6695 20.3972 10.7046C19.6509 10.9011 20.1826 10.5479 19.5913 10.5526C19.8035 11.1396 20.4401 10.7631 20.8812 10.7186C20.8502 10.7888 20.7763 10.8122 20.7477 10.8753C20.905 10.8473 21.1101 10.9034 21.2245 10.7864C21.2865 10.6251 21.6823 10.6064 21.587 10.8262C21.215 11.1794 20.0491 10.8496 19.5293 11.0741C19.4506 11.3057 19.3147 11.4577 19.0858 11.5208C18.9022 11.4086 18.8163 11.5372 18.6327 11.4858C18.5803 11.432 18.5278 11.3688 18.4468 11.4296V11.5138C18.3609 11.4904 18.2608 11.6074 18.3561 11.6612V11.6588Z" fill="white"/>
<path d="M19.0027 10.7634C18.8644 11.0066 18.9074 11.2288 19.0695 11.4346C19.3747 11.444 19.4987 11.037 19.451 10.7938L19.544 10.7306L19.5201 10.6417L19.3652 10.6347C19.2531 10.4944 19.1863 10.4944 19.0552 10.6184C18.9956 10.595 18.9455 10.6113 18.905 10.6628C18.9264 10.7072 18.955 10.74 19.0027 10.7634ZM20.4977 11.2896C20.4834 11.3574 20.5454 11.3878 20.5597 11.4393C20.4763 11.4907 20.388 11.4954 20.2998 11.5048C20.2545 11.4603 20.2354 11.3808 20.1568 11.4042C20.1091 11.4136 20.1353 11.4603 20.1019 11.4791C20.0423 11.4744 20.0089 11.5024 19.9994 11.5609L20.0828 11.6077C20.0161 11.9141 20.8792 11.596 21.0056 11.5048C20.9651 11.4346 20.9102 11.3878 20.8935 11.3083C20.8578 11.1727 20.6026 11.2849 20.4977 11.2873V11.2896ZM18.8835 11.327C18.874 11.2194 18.8454 11.0931 18.7595 11.0183C18.6618 10.9201 18.6284 10.7844 18.7285 10.6815C18.6808 10.6347 18.6117 10.6722 18.5616 10.6067C18.502 10.5365 18.4639 10.6184 18.4496 10.6909C18.2731 10.7143 18.3733 10.7727 18.4138 10.8616C18.471 11.0206 18.6785 11.3995 18.8835 11.327ZM21.4872 12.4731C21.3966 12.5152 21.275 12.5549 21.2059 12.4497C21.3609 12.3889 21.5564 12.4029 21.6637 12.2626C21.7448 12.1667 21.7352 11.9772 21.5826 11.9258C21.1868 11.8182 20.7672 12.0146 20.3666 12.0474C19.6155 12.2462 20.152 11.8907 19.5559 11.893C19.7705 12.4871 20.4095 12.1059 20.8554 12.0638C20.8244 12.1339 20.7505 12.1573 20.7195 12.2228C20.8768 12.1924 21.0843 12.2509 21.2035 12.1316C21.2631 11.9679 21.6613 11.9492 21.5683 12.1714C21.1916 12.5269 20.0161 12.1947 19.4939 12.4216C19.4128 12.6555 19.2745 12.8075 19.0456 12.8707C18.8859 12.7771 18.8024 12.8543 18.6641 12.8473C18.6713 12.8941 18.6856 12.9338 18.6951 12.9759C18.7071 13.0204 18.7118 13.0625 18.7142 13.1069C18.874 13.0905 19.0337 13.032 19.1816 12.9923C19.2793 12.9642 19.3342 12.8683 19.4438 12.8707C19.6966 12.887 19.842 12.6812 20.059 12.6204C20.3287 12.5641 20.6035 12.5351 20.8792 12.5339C21.194 12.9549 21.2512 12.597 21.5349 12.7397L21.5111 12.8636L21.5826 12.887C21.5588 12.9923 21.7161 13.0531 21.7376 12.9221C21.74 12.9057 21.7328 12.8847 21.7567 12.8824C21.926 12.7935 21.6661 12.3608 21.4872 12.4731Z" fill="white"/>
<path d="M18.9621 12.1061C18.8214 12.3541 18.8619 12.5763 19.0288 12.7844C19.3364 12.7938 19.4628 12.3868 19.4103 12.1365C19.4437 12.1155 19.4747 12.0968 19.5057 12.0734L19.4819 11.9845L19.3245 11.9775C19.2148 11.8372 19.1457 11.8372 19.0145 11.9611C18.9525 11.9377 18.9025 11.9541 18.8619 12.0079C18.8858 12.05 18.912 12.0851 18.9597 12.1061H18.9621ZM20.4666 12.6371C20.4547 12.7072 20.5191 12.7353 20.531 12.7914C20.4475 12.8429 20.3569 12.8452 20.2687 12.8569C20.2234 12.8101 20.2043 12.7306 20.1256 12.754C20.0779 12.7657 20.1018 12.8125 20.0684 12.8312C20.0088 12.8265 19.973 12.8546 19.9659 12.9107L20.0493 12.9598C19.9826 13.2685 20.8529 12.9481 20.9792 12.8546C20.9387 12.7844 20.8839 12.7376 20.8672 12.6581C20.8314 12.5225 20.5739 12.6347 20.4666 12.6371ZM18.8405 12.6768C18.8309 12.5669 18.8023 12.4406 18.7141 12.3658C18.6163 12.2652 18.5853 12.1319 18.6855 12.0243C18.6354 11.9775 18.5663 12.0149 18.5186 11.9494C18.4542 11.8793 18.4184 11.9611 18.4017 12.0336C18.2253 12.0594 18.3278 12.1155 18.3684 12.2067C18.4256 12.3658 18.6354 12.7446 18.8405 12.6745V12.6768ZM21.5181 13.7363C21.4275 13.7784 21.3083 13.8182 21.2367 13.7129C21.3917 13.6498 21.5873 13.6662 21.6945 13.5235C21.7732 13.4299 21.7661 13.2405 21.6135 13.189C21.2177 13.0838 20.8004 13.2779 20.3975 13.3106C19.6488 13.5094 20.1829 13.1539 19.5868 13.1586C19.8014 13.7503 20.4428 13.3691 20.8862 13.327C20.8553 13.3972 20.7813 13.4206 20.7527 13.4837C20.9101 13.4557 21.1175 13.5118 21.2344 13.3948C21.294 13.2311 21.6922 13.2124 21.5992 13.4346C21.2248 13.7901 20.0493 13.458 19.5248 13.6849C19.4485 13.9164 19.3102 14.0708 19.0813 14.1339C18.8929 14.0217 18.8095 14.148 18.6211 14.0988L18.5663 14.0427C18.5608 14.0408 18.5559 14.0376 18.5519 14.0333C18.5445 14.0286 18.5365 14.0246 18.5281 14.0217L18.5329 14.031C18.5353 14.1363 18.509 14.2415 18.4661 14.3374C18.7093 14.431 18.9764 14.3163 19.2172 14.2532C19.3126 14.2251 19.3698 14.1292 19.4771 14.1316C19.7298 14.1503 19.8753 13.9445 20.0923 13.8837C20.3617 13.8345 20.6359 13.7924 20.9101 13.7971C21.2248 14.2158 21.2821 13.8603 21.5658 14.0029L21.5419 14.1246L21.6135 14.1503C21.5896 14.2555 21.747 14.314 21.7685 14.183C21.7708 14.1667 21.7637 14.1456 21.7875 14.1433C21.9544 14.0544 21.6969 13.6217 21.5181 13.7363Z" fill="white"/>
<path d="M18.9959 13.3687C18.8577 13.6166 18.8982 13.8365 19.0627 14.047C19.3727 14.0563 19.4967 13.6494 19.4442 13.3991C19.4776 13.3781 19.5086 13.3594 19.5396 13.336L19.5157 13.2471L19.3608 13.2401C19.2487 13.0998 19.1819 13.0998 19.0484 13.2237C18.9864 13.2003 18.9363 13.2167 18.8958 13.2705C18.9196 13.3126 18.9483 13.3477 18.9959 13.3687ZM20.4981 13.8996C20.4862 13.9698 20.5506 13.9979 20.5625 14.0517C20.479 14.1031 20.3908 14.1078 20.3026 14.1171C20.2549 14.0727 20.2382 13.9932 20.1571 14.0166C20.1094 14.0259 20.1357 14.0727 20.1023 14.0914C20.0427 14.0867 20.0069 14.1148 19.9998 14.1733L20.0832 14.2201C20.0165 14.5288 20.8844 14.2084 21.0131 14.1171C20.9702 14.047 20.9177 14.0002 20.9011 13.9183C20.8653 13.7827 20.6078 13.895 20.5005 13.8996H20.4981ZM18.7504 13.626C18.7325 13.6082 18.7165 13.5886 18.7027 13.5675C18.6955 13.6237 18.7265 13.6868 18.717 13.7406C18.7074 13.785 18.6955 13.8482 18.6836 13.8879C18.7551 13.9581 18.7957 13.9651 18.8743 13.9371C18.8648 13.8295 18.8386 13.7032 18.7504 13.626ZM23.2592 11.4509C23.326 11.493 23.3784 11.6848 23.419 11.7128C23.4953 11.8111 23.6574 12.0753 23.8148 12.0215V12.0169C23.8624 11.9982 23.9054 11.8648 23.9101 11.8461C23.9077 11.8415 23.8815 11.8181 23.8505 11.7947C23.7027 11.6707 23.6121 11.5468 23.6121 11.4322C23.6025 11.3947 23.6955 11.3433 23.6884 11.3082C23.6836 11.1772 23.5715 11.3246 23.5286 11.3035C23.5048 11.2661 23.4213 11.1585 23.3689 11.21C23.3379 11.224 23.376 11.3035 23.3522 11.3199C23.3403 11.3363 23.3331 11.3386 23.2973 11.3363C23.1781 11.3363 23.1614 11.4064 23.2592 11.4532V11.4509Z" fill="white"/>
<path d="M23.8931 12.3377C23.9336 12.298 24.0528 12.1857 24.0671 12.16C24.079 12.1343 24.0838 12.1343 24.1673 12.1272C24.3986 12.0945 24.5154 12.0033 24.5822 11.7624C24.6131 11.6899 24.5726 11.5332 24.5249 11.4981C24.5059 11.4864 24.4987 11.463 24.5106 11.4537C24.5535 11.449 24.6418 11.4139 24.6585 11.3648C24.6346 11.318 24.5726 11.3531 24.4915 11.3274C24.4319 11.3016 24.2722 11.2525 24.2054 11.2876C24.1625 11.3414 23.8907 11.3461 23.9408 11.4256L23.9694 11.5191L24.0934 11.5355V11.6221L23.9789 11.6454C23.905 11.7507 24.153 11.7577 24.2173 11.6782C24.2626 11.6267 24.3318 11.6197 24.3294 11.6758C24.296 11.746 24.1768 11.7788 24.1077 11.8138C24.0027 11.8302 23.9765 12.029 23.8955 12.0945C23.6689 12.1343 23.5879 12.1296 23.3637 11.9542C23.2827 11.8606 23.2183 11.9308 23.2803 12.0009C23.2398 12.015 23.0323 11.9004 23.1253 12.0945L23.1396 12.1132C23.0371 12.2559 23.1897 12.2068 23.2755 12.2535C23.4591 12.3237 23.657 12.3752 23.8955 12.3377H23.8931Z" fill="white"/>
<path d="M24.6201 12.1974L24.7155 12.3916C24.7155 12.3916 24.9206 12.4804 24.9492 12.5085C25.066 12.5904 25.0445 12.8172 24.942 12.7915C24.7703 12.7237 24.6678 12.4875 24.5486 12.3425C24.5176 12.3191 24.4365 12.0828 24.3817 12.1436C23.6759 12.2957 24.5104 12.4711 24.3817 12.7284C24.3578 12.7634 24.2792 12.9389 24.3102 12.9669C24.3698 13.0371 24.5009 13.0909 24.5724 13.1798C24.6869 13.2897 24.5844 13.4136 24.4413 13.3131C24.3602 13.2546 24.2649 13.3388 24.3459 13.4183C24.3531 13.4324 24.2982 13.4557 24.2887 13.4628C24.2052 13.575 24.3435 13.568 24.4174 13.5119C24.458 13.4932 24.4174 13.6101 24.4866 13.5914C24.6154 13.5633 24.8133 13.5002 24.849 13.3037C24.9301 13.126 24.7441 13.154 24.6988 12.9973C24.6511 12.9318 24.6487 12.6956 24.7489 12.7822C24.8443 12.8991 24.9682 12.9622 25.0827 12.8617C25.1876 12.7634 25.0922 12.5296 25.0374 12.4266C24.9349 12.2185 24.818 12.0197 24.8252 11.7718C24.9682 11.6081 25.1351 11.9027 25.2353 11.4443C24.9015 11.4654 24.5724 11.6829 24.737 12.0478C24.8395 12.2536 24.818 12.2372 24.6177 12.1998L24.6201 12.1974Z" fill="white"/>
<path d="M24.0814 12.5875C23.9049 12.5781 23.7714 12.5641 23.8191 12.7676C23.8286 12.8167 23.8477 12.9664 23.8787 13.0015C23.8906 13.0202 23.8882 13.0412 23.8715 13.0529C23.8 13.0927 23.5306 12.9851 23.5616 12.8962C23.5616 12.8237 23.4877 12.805 23.4662 12.8588C23.4519 12.8822 23.4328 12.8822 23.4066 12.8518C23.3565 12.7816 23.2874 12.8752 23.316 12.929C23.3255 12.95 23.3136 12.9711 23.2874 12.9758C23.2135 13.0062 23.2158 13.1044 23.3208 13.1067C23.5449 13.2096 23.7404 13.3125 24.0027 13.2775H23.9979C24.284 13.2564 24.1386 13.205 24.1243 13.0108C24.0766 12.805 24.4414 12.667 24.0814 12.5875ZM24.3508 15.5532C24.3317 15.5368 24.284 15.5532 24.2793 15.5672C24.2793 15.6607 24.1791 15.6327 24.1481 15.6982C24.1672 15.7356 24.1958 15.7683 24.2411 15.7637C24.296 15.759 24.2888 15.8245 24.3413 15.8268C24.5749 15.7239 24.8563 15.7496 25.0566 15.5695C24.9803 15.5087 24.9612 15.4245 24.9469 15.3356C24.811 15.345 24.6775 15.3263 24.5606 15.3871C24.5487 15.4479 24.5916 15.4807 24.6226 15.5321C24.5272 15.5719 24.4414 15.5929 24.3508 15.5532Z" fill="white"/>
<path d="M28.1183 12.9832C28.023 12.7914 27.8084 11.7108 27.4984 11.9447C28.9195 14.5221 27.9705 17.9135 25.5027 19.546C24.7802 19.9693 23.8813 20.6756 23.0229 20.2055C23.5761 18.1123 26.2275 18.9963 26.8022 15.0086C26.7306 14.9759 26.7068 14.9548 26.64 14.9431C26.5604 15.4944 26.4122 16.034 26.1989 16.5499C26.4278 15.9558 26.2824 14.0988 26.3253 13.9959C26.3015 13.9655 26.2776 13.9538 26.1989 13.8602C26.2132 14.0848 26.1989 14.1643 26.1989 14.4637H22.1789V10.3917H26.125V12.6885C26.1297 12.7435 26.1376 12.7981 26.1489 12.8522C26.2061 12.7657 26.2108 12.7703 26.249 12.7423V10.2725H17.9705L17.9633 12.354H18.0849V10.3894H22.0573V14.4637H18.2256C18.2137 14.4754 18.228 14.3982 18.2161 14.4099C18.2161 14.3982 18.1898 14.473 18.1898 14.4637H18.0825V14.1503L17.9633 14.1456C17.8727 14.4496 18.135 17.006 18.5666 17.455C17.7034 16.6411 17.4316 15.1981 17.5937 14.1105C17.5937 14.1105 17.5127 14.0497 17.4244 13.9702C17.1526 15.5045 17.7487 17.0153 18.8551 18.1099C18.9504 18.2128 19.0577 18.1052 19.1746 18.0748C19.1507 18.0514 19.1007 18.0117 19.0649 17.9649L19.1746 18.0748L19.115 17.9111C18.2447 17.2656 18.1016 15.4249 18.0849 14.5829H22.0549C22.0549 14.5829 22.0549 19.6886 22.0501 19.7003C21.2061 19.6606 20.6338 18.7695 19.8184 18.7601C20.9915 19.4337 23.1326 21.0592 24.4869 20.3459L24.506 20.3692C24.363 20.5423 23.8622 20.8698 23.6381 20.7856C23.2709 20.5704 22.7011 20.9633 22.9633 21.3632C22.9967 21.41 23.0158 21.4498 22.9776 21.5129C21.5136 21.3796 20.1975 20.5306 18.9648 19.8032L18.9433 19.8266C19.4154 20.4464 21.1035 21.2159 21.1035 21.2159V22.1374L21.2824 22.2543V21.2557C21.7259 21.403 22.6224 21.6767 22.6224 21.6767L22.6248 22.2988L22.7964 22.1935L22.7869 21.7258L23.0253 21.6626C23.098 21.6444 23.1616 21.601 23.2041 21.5403C23.2466 21.4797 23.2653 21.406 23.2566 21.3328C23.2182 21.3159 23.187 21.2863 23.1687 21.249C23.1504 21.2118 23.146 21.1694 23.1565 21.1294C23.1922 20.9469 23.4188 20.9423 23.5117 21.0522C23.6953 21.1317 23.8742 20.9189 24.0554 20.8674C24.3105 20.7177 24.6229 20.5868 24.7421 20.3014C24.7659 20.2313 24.8041 20.1845 24.8661 20.1517C25.387 19.8813 25.8682 19.543 26.2967 19.146C28.0897 17.6749 28.7144 15.1466 28.1183 12.9832ZM22.1789 14.5806H26.1965C26.5256 17.565 24.723 18.5637 22.1765 19.6044V14.5806H22.1789ZM22.2504 19.9132C22.486 19.6958 22.7809 19.5503 23.0992 19.4945L22.7988 20.1494L22.2504 19.9108V19.9132ZM13.278 21.5504C13.1874 21.4966 13.073 21.4802 12.9395 21.5012C12.9681 21.6977 13.042 22.0649 13.0992 22.2567C13.4807 22.2029 13.5928 21.7421 13.278 21.5504Z" fill="white"/>
<path d="M18.4476 20.1963C16.1705 20.1986 13.903 21.1435 11.6283 21.1435C11.3541 21.1435 11.0799 21.1295 10.8057 21.0967C11.5114 21.6394 11.4637 22.7246 12.489 22.7246L12.6273 22.7176C14.0222 22.5726 15.4075 22.1913 16.7809 21.9808C17.0169 21.9457 18.1519 21.6768 18.8171 21.6768C19.0556 21.6768 19.2368 21.7095 19.2892 21.8054C19.3608 21.9317 18.9077 22.3012 18.9077 22.3153C18.9054 22.32 18.9077 22.3223 18.9125 22.3223C18.9554 22.3223 19.2058 22.182 19.3942 22.0627C20.1357 21.5435 18.5811 20.1963 18.4476 20.1963ZM13.655 22.0299C13.531 22.3153 13.1614 22.3808 12.8705 22.4299C12.8848 22.341 12.7084 21.5154 12.6559 21.4382C13.1567 21.2301 13.872 21.4335 13.655 22.0299ZM13.9483 22.203C13.9508 21.8609 13.8768 21.5223 13.7313 21.2113L14.0222 21.1505C14.0189 21.4925 14.0922 21.831 14.2368 22.1422L13.9483 22.203ZM15.0665 21.9691L14.4704 22.0954C14.4824 22.0089 14.2892 21.1973 14.2392 21.1225L14.8662 20.9892L14.8162 21.1926C14.728 21.1692 14.6254 21.1692 14.511 21.1926L14.5825 21.485L14.9282 21.4101L14.9831 21.5552C14.9139 21.5435 14.7065 21.5949 14.6111 21.6089L14.6826 21.9177C14.8543 21.8803 14.995 21.8241 15.1071 21.7516H15.1094L15.0665 21.9668V21.9691ZM15.6769 21.8756C15.243 21.8873 15.1786 21.2839 15.0785 20.9868L15.2883 20.9494C15.3884 21.2067 15.3598 21.8148 15.8081 21.7329C16.1323 21.5926 15.8701 21.0944 15.8367 20.8535L16.0441 20.8254C16.1228 21.223 16.3088 21.9177 15.6769 21.8779V21.8756ZM17.4032 21.5762L16.8071 21.7095C16.819 21.623 16.6188 20.8137 16.5687 20.7389L17.1958 20.5986L17.1481 20.8044C17.0599 20.781 16.9573 20.781 16.8405 20.8044L16.912 21.0991L17.2601 21.0219L17.3174 21.1622C17.2482 21.1529 17.0408 21.2043 16.9454 21.223L17.0193 21.5271C17.191 21.492 17.3317 21.4335 17.4437 21.3587L17.4461 21.361L17.4032 21.5762ZM18.0303 20.5939L18.202 21.4312L18.0017 21.4663L17.8276 20.6313C17.7036 20.6524 17.6369 20.6524 17.47 20.7225L17.4652 20.5354L18.3236 20.4278L18.3832 20.5869C18.2659 20.5733 18.1472 20.5749 18.0303 20.5916V20.5939ZM28.9936 21.1271C28.9459 21.3143 28.8696 21.6604 28.8458 21.8475C29.2917 21.9411 29.43 21.216 28.9936 21.1271ZM30.7438 21.4242C30.4028 21.34 30.2907 22.0323 30.5768 22.1422C30.9226 22.2217 31.0299 21.5341 30.7438 21.4218V21.4242ZM29.8496 21.2932L29.7447 21.6604C30.0356 21.7119 30.162 21.34 29.8496 21.2932ZM27.1124 20.7693C26.7547 20.6758 26.6188 21.3891 26.9168 21.5107C27.2817 21.6043 27.4128 20.8933 27.1124 20.7693Z" fill="white"/>
<path d="M32.2054 21.1383C31.9217 21.1383 31.6498 21.1336 31.5187 21.1219C30.0165 20.9816 28.5335 20.5653 27.0361 20.3337C26.6045 20.2682 26.2492 20.2051 25.944 20.2051C25.3074 20.2051 24.8758 20.474 24.3632 21.5312C24.1462 21.9358 24.8758 22.3194 25.038 22.3358C24.4371 21.8376 24.6469 21.6902 25.1191 21.6902C25.7748 21.6902 26.9359 21.9709 27.1625 22.0013C28.5335 22.2118 29.9212 22.593 31.316 22.738L31.4567 22.7451C32.482 22.7451 32.4319 21.6598 33.1377 21.1196C33.0113 21.1289 32.5964 21.1383 32.2078 21.1383H32.2054ZM26.5616 20.5536C26.5282 20.584 26.4066 21.4119 26.4138 21.4914L26.1849 21.4493C26.2254 21.3792 26.2802 20.8015 26.2802 20.8015L25.8868 21.3932L25.6555 20.7243C25.6555 20.7243 25.5625 21.2061 25.5602 21.3605L25.3336 21.3301C25.4052 21.2178 25.5482 20.3665 25.5482 20.3665L25.7795 20.4086C25.7867 20.4553 25.9607 21.0307 25.9607 21.0307C25.9607 21.0307 26.2707 20.5278 26.2898 20.5021L26.5616 20.5489V20.5536ZM27.4033 21.2856C27.1982 21.9639 26.3923 21.592 26.6307 20.9886C26.8358 20.3314 27.6417 20.6775 27.4033 21.2856ZM28.1973 21.8797C28.1257 21.8633 27.7466 21.1125 27.7466 21.1125C27.7466 21.1125 27.6536 21.6973 27.6298 21.737L27.4581 21.7136L27.656 20.7945L27.8468 20.8179C27.8468 20.8436 28.1496 21.4634 28.1496 21.4634L28.2593 20.9161L28.4071 20.9558L28.1973 21.8797ZM29.0962 21.9592C28.9603 22.006 28.7648 21.9545 28.6241 21.9265L28.8148 20.9816C29.4467 20.9418 29.7066 21.7347 29.0962 21.9592ZM30.2168 21.5242C30.1882 21.6318 30.1072 21.7043 29.9736 21.744C30.0309 21.9311 30.0666 21.992 30.1644 22.1954V22.2001L30.0094 22.1767C29.8956 22.0503 29.8008 21.9085 29.728 21.7557C29.6947 21.8727 29.6613 22.02 29.6756 22.1253L29.4133 22.0878C29.461 22.0153 29.666 21.2412 29.6589 21.1593C29.883 21.1874 30.2884 21.2272 30.2168 21.5242ZM30.7176 22.2726C30.1358 22.3779 30.1382 21.4306 30.6031 21.2973C31.1825 21.178 31.1849 22.1416 30.7152 22.2726H30.7176ZM31.3184 21.7183C31.2946 21.8844 31.2159 22.2282 31.2469 22.3872L31.0204 22.3545C31.1205 22.1066 31.1873 21.6879 31.173 21.4236L31.3995 21.454C31.3613 21.5289 31.3351 21.6177 31.3184 21.7183ZM31.8549 21.6762C31.8549 21.6762 31.7214 22.4036 31.7285 22.4667L31.5044 22.427C31.4996 22.4317 31.6427 21.7885 31.6785 21.6481C31.5905 21.6316 31.4996 21.6397 31.4162 21.6715H31.4138L31.5044 21.4891L32.1148 21.5944L32.1577 21.7978C32.0662 21.7375 31.9632 21.6961 31.8549 21.6762Z" fill="white"/>
</g>
<defs>
<clipPath id="clip0_6327_3879">
<rect width="116" height="41" fill="white"/>
</clipPath>
</defs>
</svg>
