<svg width="114" height="34" viewBox="0 0 114 34" fill="none" xmlns="http://www.w3.org/2000/svg">
<g clip-path="url(#clip0_6327_3920)">
<path d="M0 0.00254237V34H41.4183C41.1001 33.7711 40.802 33.5269 40.5364 33.2699C38.1712 30.9475 38.1386 28.2511 38.071 25.7226V11.3808H45.6376V26.4399C45.6376 27.4651 45.6727 28.5233 46.517 29.3424C47.1259 29.991 48.0378 30.2301 48.9148 30.2301C50.0974 30.2301 50.8741 29.785 51.315 29.378C52.192 28.5233 52.227 27.4651 52.227 26.4399V11.3808H59.8287V24.2218C59.8287 26.9868 59.8287 30.5735 57.0251 33.2699C56.757 33.5243 56.4613 33.7685 56.1431 34H67.4755C64.1407 31.5707 62.5722 27.5108 62.5722 23.5706C62.5722 17.0814 66.8641 10.4905 74.9368 10.4905C78.5523 10.4905 81.9973 11.7878 84.4978 14.385C85.5125 15.4432 85.9836 16.2623 86.4897 17.2188L80.1733 20.3959C79.5645 18.9612 78.417 16.3997 75.24 16.3997C73.5839 16.3997 72.5366 17.1857 72.0305 17.697C70.239 19.4369 70.239 22.1689 70.239 23.1279C70.239 26.7121 71.5569 30.0928 75.2726 30.0928C78.7853 30.0928 79.8326 26.9512 80.1032 26.1321L86.5222 29.2737C85.9134 30.4336 85.3397 31.5275 84.1921 32.6874C83.6986 33.1784 83.1649 33.6134 82.6011 33.9975H89.5414V11.3427H97.0729V29.149H106.849V33.9975H114V0H0" fill="white"/>
<path d="M34.2379 16.7888C34.2229 16.7862 30.1615 15.8984 30.1615 15.8984C30.1615 15.8984 26.095 16.7862 26.0875 16.7888C26.065 16.7938 26.0725 16.8116 26.0725 16.8116L26.1276 17.0228H26.1401C26.1401 17.0228 26.2028 17.0152 26.2404 17.0737L26.3005 17.4145C26.3005 17.4145 26.3005 17.4374 26.3255 17.4374H34.0024C34.0224 17.4374 34.0249 17.4196 34.0249 17.4196L34.0851 17.0787C34.1201 17.0126 34.1878 17.0202 34.1878 17.0202H34.1978L34.2554 16.8091C34.2554 16.8091 34.263 16.7888 34.2404 16.7862" fill="#212121"/>
<path d="M33.8115 17.5499C33.8115 17.5499 33.819 17.5474 33.819 17.5398V17.4329C33.819 17.4329 33.814 17.4329 33.8115 17.4329H33.1926C33.1926 17.4329 33.1826 17.4278 33.1826 17.4329V17.5398C33.1826 17.5398 33.1876 17.5499 33.1926 17.5499H33.2177C33.2177 17.5499 33.2302 17.5627 33.2302 17.5754C33.2302 17.5906 33.2377 17.672 33.2929 17.7229C33.3004 17.7305 33.2979 17.7509 33.2803 17.7509H33.2603C33.2453 17.7509 33.2453 17.7611 33.2503 17.7687C33.2553 17.7789 33.2578 17.8069 33.2578 17.8196V17.8654C33.2578 17.8654 33.2578 17.8806 33.2678 17.8806H33.2778C33.2778 17.8806 33.2828 17.8806 33.2828 17.8883V20.2107C33.2828 20.2107 33.2528 20.2438 33.2503 20.2438C33.2503 20.2438 33.2453 20.2489 33.2453 20.2514V20.2896C33.2453 20.2896 33.2453 20.2972 33.2427 20.2972C33.2427 20.2972 33.2377 20.2997 33.2352 20.2997H33.2077C33.2077 20.2997 33.1976 20.3048 33.1976 20.3099V20.3761H33.804V20.3099C33.804 20.3099 33.799 20.2997 33.7965 20.2997H33.7689C33.7689 20.2997 33.7614 20.2997 33.7589 20.2972C33.7589 20.2972 33.7564 20.2921 33.7564 20.2896V20.2514C33.7564 20.2514 33.7564 20.2463 33.7514 20.2438C33.7464 20.2412 33.7288 20.2209 33.7188 20.2107V17.8883L33.7238 17.8806H33.7313C33.7313 17.8806 33.7413 17.873 33.7413 17.8654V17.8196C33.7413 17.8069 33.7413 17.7789 33.7489 17.7687C33.7539 17.7611 33.7539 17.7509 33.7388 17.7509H33.7213C33.7038 17.7509 33.7013 17.7305 33.7088 17.7229C33.7664 17.6746 33.7714 17.5932 33.7714 17.5779C33.7714 17.5627 33.7714 17.5499 33.7864 17.5499H33.8115Z" fill="#212121"/>
<path d="M32.4765 17.5499C32.4765 17.5499 32.4841 17.5474 32.4841 17.5398V17.4329C32.4841 17.4329 32.479 17.4329 32.4765 17.4329H31.8552C31.8552 17.4329 31.8477 17.4278 31.8477 17.4329V17.5398C31.8477 17.5398 31.8527 17.5499 31.8552 17.5499H31.8827C31.8827 17.5499 31.8953 17.5627 31.8953 17.5754C31.8953 17.5906 31.9028 17.672 31.9579 17.7229C31.9654 17.7305 31.9629 17.7509 31.9479 17.7509H31.9303C31.9153 17.7509 31.9153 17.7611 31.9178 17.7687C31.9228 17.7789 31.9253 17.8069 31.9253 17.8196V17.8654C31.9253 17.8654 31.9253 17.8806 31.9354 17.8806H31.9454C31.9454 17.8806 31.9529 17.8806 31.9529 17.8883C31.9529 17.8933 31.9529 17.8984 31.9529 17.8984V20.2107L31.9203 20.2438C31.9203 20.2438 31.9178 20.2489 31.9178 20.2514V20.2896C31.9178 20.2896 31.9178 20.2972 31.9153 20.2972C31.9153 20.2972 31.9103 20.2997 31.9078 20.2997H31.8777C31.8777 20.2997 31.8702 20.3048 31.8702 20.3099V20.3761H32.4765V20.3099C32.4765 20.3099 32.4715 20.2997 32.469 20.2997H32.439C32.439 20.2997 32.4314 20.2997 32.4314 20.2972C32.4314 20.2972 32.4289 20.2921 32.4289 20.2896V20.2514C32.4289 20.2514 32.4289 20.2463 32.4239 20.2438C32.4214 20.2412 32.4014 20.2209 32.3913 20.2107V17.8883L32.3989 17.8806H32.4064C32.4064 17.8806 32.4139 17.873 32.4139 17.8654V17.8196C32.4139 17.8069 32.4164 17.7789 32.4214 17.7687C32.4264 17.7611 32.4214 17.7509 32.4089 17.7509H32.3913C32.3738 17.7509 32.3713 17.7305 32.3788 17.7229C32.4364 17.6746 32.4415 17.5932 32.4415 17.5779C32.4415 17.5627 32.4415 17.5499 32.4565 17.5499H32.4841" fill="#212121"/>
<path d="M31.1406 17.5499C31.1406 17.5499 31.1481 17.5474 31.1481 17.5398V17.4329C31.1481 17.4329 31.1456 17.4329 31.1406 17.4329H30.5217C30.5217 17.4329 30.5117 17.4278 30.5117 17.4329V17.5398C30.5117 17.5398 30.5167 17.5499 30.5217 17.5499H30.5493C30.5493 17.5499 30.5618 17.5627 30.5618 17.5754C30.5618 17.5906 30.5693 17.672 30.6245 17.7229C30.632 17.7305 30.6295 17.7509 30.6119 17.7509H30.5919C30.5769 17.7509 30.5769 17.7611 30.5819 17.7687C30.5869 17.7789 30.5894 17.8069 30.5894 17.8196V17.8654C30.5894 17.8654 30.5894 17.8806 30.5969 17.8806H30.6069C30.6069 17.8806 30.6144 17.8806 30.6144 17.8883V20.2107L30.5819 20.2438C30.5819 20.2438 30.5769 20.2489 30.5769 20.2514V20.2896V20.2972C30.5769 20.2972 30.5718 20.2997 30.5693 20.2997H30.5418C30.5418 20.2997 30.5318 20.3048 30.5318 20.3099V20.3761H31.1381V20.3099C31.1381 20.3099 31.1331 20.2997 31.1281 20.2997H31.1005C31.1005 20.2997 31.093 20.2997 31.0905 20.2972C31.0905 20.2972 31.088 20.2921 31.088 20.2896V20.2514C31.088 20.2514 31.088 20.2463 31.0855 20.2438C31.083 20.2412 31.0629 20.2209 31.0529 20.2107V17.8883L31.0604 17.8806H31.0679C31.0679 17.8806 31.078 17.873 31.078 17.8654V17.8196C31.078 17.8069 31.078 17.7789 31.0855 17.7687C31.0905 17.7611 31.0905 17.7509 31.0755 17.7509H31.0554C31.0379 17.7509 31.0354 17.7305 31.0454 17.7229C31.1005 17.6746 31.108 17.5932 31.108 17.5779C31.108 17.5627 31.108 17.5499 31.1231 17.5499H31.1481" fill="#212121"/>
<path d="M29.8056 17.5499C29.8056 17.5499 29.8132 17.5474 29.8132 17.5398V17.4329C29.8132 17.4329 29.8081 17.4329 29.8056 17.4329H29.1843C29.1843 17.4329 29.1768 17.4278 29.1768 17.4329V17.5398C29.1768 17.5398 29.1793 17.5499 29.1843 17.5499H29.2118C29.2118 17.5499 29.2244 17.5627 29.2244 17.5754C29.2244 17.5906 29.2319 17.672 29.287 17.7229C29.2945 17.7305 29.292 17.7509 29.2745 17.7509H29.2569C29.2419 17.7509 29.2419 17.7611 29.2469 17.7687C29.2519 17.7789 29.2544 17.8069 29.2544 17.8196V17.8654C29.2544 17.8654 29.2544 17.8806 29.2645 17.8806H29.2745C29.2745 17.8806 29.282 17.8806 29.282 17.8883V20.2107L29.2494 20.2438C29.2494 20.2438 29.2469 20.2489 29.2469 20.2514V20.2896C29.2469 20.2896 29.2469 20.2972 29.2444 20.2972C29.2444 20.2972 29.2394 20.2997 29.2344 20.2997H29.2068C29.2068 20.2997 29.1993 20.3048 29.1993 20.3099V20.3761H29.8056V20.3099C29.8056 20.3099 29.8006 20.2997 29.7981 20.2997H29.7681C29.7681 20.2997 29.7605 20.2997 29.7605 20.2972C29.7605 20.2972 29.7605 20.2921 29.7605 20.2896V20.2514C29.7605 20.2514 29.7605 20.2463 29.7555 20.2438C29.753 20.2412 29.733 20.2209 29.723 20.2107V17.8984C29.723 17.8984 29.723 17.8959 29.723 17.8883C29.723 17.8806 29.7305 17.8806 29.7305 17.8806H29.7405C29.7405 17.8806 29.748 17.873 29.748 17.8654V17.8196C29.748 17.8069 29.748 17.7789 29.7555 17.7687C29.7605 17.7611 29.758 17.7509 29.7455 17.7509H29.728C29.7104 17.7509 29.7079 17.7305 29.7154 17.7229C29.7731 17.6746 29.7781 17.5932 29.7781 17.5779C29.7781 17.5627 29.7781 17.5499 29.7931 17.5499H29.8207" fill="#212121"/>
<path d="M28.4677 17.5499C28.4677 17.5499 28.4778 17.5474 28.4778 17.5398V17.4329C28.4778 17.4329 28.4728 17.4329 28.4677 17.4329H27.8489C27.8489 17.4329 27.8389 17.4278 27.8389 17.4329V17.5398C27.8389 17.5398 27.8439 17.5499 27.8489 17.5499H27.8739C27.8865 17.5499 27.889 17.5627 27.889 17.5754C27.889 17.5906 27.8965 17.672 27.9516 17.7229C27.9591 17.7305 27.9566 17.7509 27.9391 17.7509H27.919C27.904 17.7509 27.904 17.7611 27.909 17.7687C27.914 17.7789 27.9165 17.8069 27.9165 17.8196V17.8654C27.9165 17.8654 27.9165 17.8806 27.9266 17.8806H27.9341C27.9341 17.8806 27.9416 17.8806 27.9416 17.8883V20.2107L27.909 20.2438C27.909 20.2438 27.904 20.2489 27.904 20.2514V20.2896C27.904 20.2896 27.904 20.2972 27.9015 20.2972C27.9015 20.2972 27.8965 20.2997 27.894 20.2997H27.8664C27.8664 20.2997 27.8564 20.3048 27.8564 20.3099V20.3761H28.4627V20.3099C28.4627 20.3099 28.4577 20.2997 28.4552 20.2997H28.4252C28.4252 20.2997 28.4201 20.2997 28.4176 20.2972C28.4176 20.2972 28.4151 20.2921 28.4151 20.2896V20.2514C28.4151 20.2514 28.4151 20.2463 28.4101 20.2438C28.4076 20.2412 28.3876 20.2209 28.3775 20.2107V17.8883L28.3851 17.8806H28.3926C28.3926 17.8806 28.4026 17.873 28.4026 17.8654V17.8196C28.4026 17.8069 28.4026 17.7789 28.4101 17.7687C28.4151 17.7611 28.4126 17.7509 28.4001 17.7509H28.3801C28.3625 17.7509 28.36 17.7305 28.3675 17.7229C28.4252 17.6746 28.4302 17.5932 28.4302 17.5779C28.4302 17.5627 28.4302 17.5499 28.4452 17.5499H28.4703" fill="#212121"/>
<path d="M27.1322 17.5499C27.1322 17.5499 27.1423 17.5474 27.1423 17.5398V17.4329C27.1423 17.4329 27.1372 17.4329 27.1322 17.4329H26.5134C26.5134 17.4329 26.5059 17.4278 26.5059 17.4329V17.5398C26.5059 17.5398 26.5109 17.5499 26.5134 17.5499H26.5409C26.5409 17.5499 26.5535 17.5627 26.5535 17.5754C26.5535 17.5906 26.561 17.672 26.6161 17.7229C26.6236 17.7305 26.6211 17.7509 26.6036 17.7509H26.5835C26.5685 17.7509 26.5685 17.7611 26.5735 17.7687C26.5785 17.7789 26.5785 17.8069 26.5785 17.8196V17.8654C26.5785 17.8654 26.5785 17.8806 26.5885 17.8806H26.5986C26.5986 17.8806 26.6061 17.8806 26.6061 17.8883V20.2107C26.6061 20.2107 26.576 20.2438 26.5735 20.2438C26.5735 20.2438 26.5685 20.2489 26.5685 20.2514V20.2896V20.2972C26.5685 20.2972 26.5635 20.2997 26.5585 20.2997H26.5309C26.5309 20.2997 26.5209 20.3048 26.5209 20.3099V20.3761H27.1272V20.3099C27.1272 20.3099 27.1222 20.2997 27.1197 20.2997H27.0896C27.0896 20.2997 27.0821 20.2997 27.0821 20.2972C27.0821 20.2972 27.0796 20.2921 27.0796 20.2896V20.2514C27.0796 20.2514 27.0796 20.2463 27.0771 20.2438C27.0746 20.2412 27.0521 20.2209 27.0445 20.2107V17.8883L27.0496 17.8806H27.0571C27.0571 17.8806 27.0671 17.873 27.0671 17.8654V17.8196C27.0671 17.8069 27.0671 17.7789 27.0746 17.7687C27.0771 17.7611 27.0771 17.7509 27.0646 17.7509H27.047C27.0295 17.7509 27.027 17.7305 27.0345 17.7229C27.0921 17.6746 27.0972 17.5932 27.0972 17.5779C27.0972 17.5627 27.0972 17.5499 27.1122 17.5499H27.1372" fill="#212121"/>
<path d="M32.0578 15.0999H31.9952C31.9777 15.0999 31.9802 15.0847 31.9802 15.0847V15.016C31.9802 14.9982 31.9626 14.9982 31.9626 14.9982H31.9C31.8825 14.9982 31.8825 14.9829 31.8825 14.9829V14.9193C31.8825 14.9193 31.8825 14.9041 31.8674 14.9041H31.8298C31.8173 14.9041 31.8023 14.8939 31.8023 14.8735C31.8023 14.7845 31.8298 14.1664 31.5066 13.7161C31.2536 13.3295 30.9028 13.1336 30.7099 13.042C30.7049 12.9581 30.5896 12.9275 30.537 12.9097C30.5094 12.8996 30.4869 12.8894 30.4869 12.864V12.836C30.4869 12.8105 30.5094 12.8004 30.5445 12.8004C30.5545 12.8004 30.5646 12.7902 30.5646 12.7851V12.7088C30.5646 12.7088 30.5545 12.6859 30.5395 12.6859C30.5145 12.6859 30.4844 12.6859 30.4694 12.6859C30.4518 12.6859 30.4443 12.6706 30.4443 12.6605V12.6223C30.4443 12.5994 30.4268 12.5867 30.4142 12.5816V12.1186C30.4142 12.1034 30.4268 12.1059 30.4368 12.1059H30.4418C30.4418 12.1059 30.4518 12.1008 30.4518 12.0957V12.0525C30.4518 12.0525 30.4468 12.0423 30.4418 12.0423H30.4218C30.4218 12.0423 30.4092 12.0296 30.4092 12.0092C30.4092 11.9889 30.4167 11.9787 30.4243 11.9762H30.4418C30.4418 11.9762 30.4518 11.9711 30.4518 11.966V11.9202C30.4518 11.9202 30.4468 11.91 30.4418 11.91H30.4192C30.4192 11.91 30.4017 11.905 30.3917 11.8948C30.314 11.8312 30.2363 11.7422 30.2363 11.7294V11.7116C30.2363 11.7116 30.2263 11.6836 30.2063 11.6836C30.1862 11.6836 30.1887 11.6608 30.1988 11.6608C30.2063 11.6608 30.2088 11.6608 30.2088 11.648V11.6175C30.2088 11.6048 30.1687 11.5488 30.1687 11.5488H30.1662C30.1662 11.5488 30.1261 11.6048 30.1261 11.6175V11.648C30.1261 11.648 30.1286 11.6608 30.1361 11.6608C30.1461 11.6608 30.1512 11.6836 30.1311 11.6836C30.1086 11.6836 30.101 11.7015 30.101 11.7116C30.101 11.7218 30.101 11.7218 30.101 11.7294C30.101 11.7422 30.0234 11.8337 29.9457 11.8948C29.9357 11.9024 29.9282 11.9075 29.9181 11.91H29.8956C29.8956 11.91 29.8856 11.9151 29.8856 11.9202V11.966C29.8856 11.966 29.8906 11.9762 29.8956 11.9762H29.9131C29.9131 11.9762 29.9282 11.9889 29.9282 12.0092C29.9282 12.0296 29.9232 12.0398 29.9156 12.0423H29.8956C29.8956 12.0423 29.8856 12.0474 29.8856 12.0525V12.0957C29.8856 12.0957 29.8906 12.1059 29.8956 12.1059H29.9006C29.9106 12.1059 29.9232 12.1059 29.9232 12.1186V12.5816C29.9106 12.5892 29.8931 12.5994 29.8931 12.6223V12.6605C29.8931 12.6605 29.8856 12.6859 29.868 12.6859C29.853 12.6859 29.8229 12.6859 29.7979 12.6859C29.7828 12.6859 29.7728 12.6986 29.7728 12.7088V12.7851C29.7728 12.7851 29.7803 12.8029 29.7929 12.8004C29.8279 12.8004 29.853 12.8105 29.853 12.836V12.864C29.853 12.8894 29.8279 12.8996 29.8029 12.9097C29.7528 12.9275 29.635 12.9606 29.6325 13.042C29.4396 13.1336 29.0888 13.3295 28.8358 13.7161C28.5126 14.1664 28.5426 14.7845 28.5401 14.8735C28.5401 14.8913 28.5251 14.9041 28.5126 14.9041H28.475C28.4599 14.9041 28.4599 14.9193 28.4599 14.9193V14.9829C28.4599 14.9829 28.4599 14.9982 28.4449 14.9982H28.3823C28.3823 14.9982 28.3672 14.9982 28.3672 15.016V15.0847C28.3672 15.0847 28.3672 15.0999 28.3497 15.0999H28.2871C28.2871 15.0999 28.2695 15.0999 28.2695 15.1177V15.194C28.2695 15.194 28.2745 15.2042 28.2796 15.2042C28.2996 15.2042 28.3372 15.2246 28.3372 15.2678C28.3372 15.3416 28.3823 15.3467 28.3998 15.3467V15.6163C28.3998 15.6799 28.3522 15.7028 28.3247 15.7104C28.3196 15.7104 28.3121 15.7181 28.3121 15.7257V16.003L30.1812 15.5832H30.1837L32.0528 16.003V15.7257C32.0528 15.7257 32.0453 15.7104 32.0378 15.7104C32.0102 15.7028 31.9626 15.6799 31.9626 15.6163V15.3467C31.9802 15.3467 32.0253 15.339 32.0253 15.2678C32.0253 15.2246 32.0628 15.2068 32.0829 15.2042C32.0904 15.2042 32.0954 15.2017 32.0954 15.194V15.1177C32.0954 15.0999 32.0779 15.0999 32.0779 15.0999" fill="#212121"/>
<path d="M34.1245 21.1644V20.6098H33.8063V20.3682H26.5203V20.6098H26.1996V21.1644H25.8789V21.724H34.4477V21.1644H34.127" fill="#212121"/>
</g>
<defs>
<clipPath id="clip0_6327_3920">
<rect width="114" height="34" fill="white"/>
</clipPath>
</defs>
</svg>
