<svg width="71" height="132" viewBox="0 0 71 132" fill="none" xmlns="http://www.w3.org/2000/svg">
<g clip-path="url(#clip0_442_497)">
<path d="M56.0281 43.9818C54.9607 50.9708 54.249 58.0691 49.0212 63.1744C44.1492 67.9247 36.1569 69.5901 29.5879 69.5901C21.4314 69.5901 9.88086 66.8054 9.88086 56.2672C9.88086 47.2306 16.9699 40.8968 25.4001 40.8968C28.4109 40.8968 31.4491 42.2072 31.4491 45.6472C31.4491 48.3499 29.9437 50.0153 27.4529 50.4794C24.36 51.2165 22.3072 53.1003 22.3072 56.7313C22.3072 60.3624 25.318 62.5191 28.6846 62.5191C32.0513 62.5191 34.7336 60.8538 36.3211 57.9599C38.0181 54.8749 39.2498 46.6846 39.9614 42.8625L45.1071 9.30962C45.1071 7.34395 44.1218 6.79793 42.808 5.8697C42.0142 5.21448 41.0289 4.55926 41.0289 3.43992C41.0289 0.546019 43.766 0 45.9009 0H63.6372C65.2247 0 67.2775 0.382213 67.2775 2.62089C67.2775 4.01324 66.4017 4.66846 65.3342 5.40558C61.3381 8.19028 61.4202 10.074 60.6264 15.0974L56.0007 43.9818H56.0281Z" fill="#BDBDBD"/>
<path d="M47.2681 107.784C46.0638 111.852 44.9689 117.339 44.9689 121.544C44.9689 124.41 45.4616 128.478 49.2388 128.478C51.6201 128.478 52.8244 126.649 53.8097 124.765C54.9867 122.636 55.8078 120.315 56.4373 117.967C57.6416 113.818 58.627 108.057 58.627 103.798C58.627 101.177 57.8332 97.2459 54.494 97.2459C52.1675 97.2459 50.8263 99.3754 49.8136 101.259L47.2407 107.757L47.2681 107.784ZM36.8945 117.312C36.8945 107.156 42.7519 93.7787 54.6308 93.7787C58.1617 93.7787 61.583 95.2256 63.7727 98.0376C65.9624 100.768 66.7561 104.672 66.7561 108.084C66.7561 118.377 61.2546 132 49.184 132C40.4527 132 36.9219 125.066 36.9219 117.285" fill="#BDBDBD"/>
<path d="M15.4914 100.713C14.2324 100.713 11.7416 100.713 10.5647 100.877C9.52457 101.123 8.92241 101.805 8.34763 102.624C7.85495 103.443 7.30753 104.208 6.29481 104.208C5.39157 104.208 4.84416 103.634 4.84416 102.788C4.84416 102.542 4.8989 102.187 4.95364 101.914C6.70537 93.533 5.61054 94.2155 14.5334 94.2155H29.7243C30.5728 94.2155 33.0361 93.806 33.0361 95.2257C33.0361 96.0993 32.1876 97.3278 31.7771 97.983L26.823 106.719L17.8453 125.502C17.4074 126.567 16.2852 129.625 15.6283 130.444C15.0809 131.099 14.2871 131.427 13.4112 131.563H5.88425C5.28209 131.509 4.43359 131.208 4.43359 130.553C4.43359 129.679 5.33683 128.451 5.77477 127.741L16.2578 112.125L25.126 100.74H15.4367L15.4914 100.713Z" fill="#BDBDBD"/>
<path d="M62.2689 64.8124H63.2269C63.6922 64.8124 63.9933 64.7305 64.1575 64.594C64.3217 64.4575 64.4039 64.2664 64.4039 64.048C64.4039 63.9115 64.3765 63.775 64.2944 63.6385C64.2123 63.5293 64.1028 63.4474 63.9659 63.3655C63.8291 63.3109 63.5554 63.2836 63.1722 63.2836H62.2689V64.7851V64.8124ZM61.4752 67.5971V62.601H63.1448C63.7196 62.601 64.1302 62.6556 64.4039 62.7375C64.6502 62.8194 64.8692 62.9833 65.006 63.229C65.1702 63.4474 65.225 63.6931 65.225 63.9661C65.225 64.321 65.0881 64.6486 64.8418 64.9216C64.5955 65.1946 64.2396 65.3311 63.8291 65.3857C63.9933 65.4676 64.1301 65.5495 64.2396 65.6587C64.4312 65.8498 64.6776 66.1775 64.9786 66.6416L65.5808 67.6244H64.6228L64.1849 66.8327C63.8564 66.2048 63.5827 65.8225 63.3638 65.6587C63.2269 65.5495 63.0079 65.4949 62.7342 65.4949H62.2689V67.6244H61.4752V67.5971ZM63.4732 61.1814C62.8437 61.1814 62.2142 61.3452 61.612 61.6728C61.0099 62.0004 60.5446 62.4918 60.1887 63.0925C59.8603 63.7204 59.6687 64.3483 59.6687 65.0308C59.6687 65.7133 59.8329 66.3413 60.1614 66.9419C60.4898 67.5425 60.9551 68.0339 61.5573 68.3615C62.1594 68.6891 62.789 68.8802 63.4459 68.8802C64.1028 68.8802 64.7323 68.7164 65.3345 68.3615C65.9366 68.0066 66.4019 67.5425 66.7304 66.9419C67.0588 66.3413 67.2231 65.686 67.2231 65.0308C67.2231 64.3756 67.0588 63.7204 66.703 63.0925C66.3746 62.4645 65.8819 62.0004 65.2797 61.6728C64.6776 61.3452 64.048 61.1814 63.4185 61.1814M63.4732 60.417C64.2396 60.417 64.9786 60.6081 65.7177 61.0176C66.4567 61.4271 67.0041 62.0004 67.4146 62.7375C67.8252 63.4747 68.0168 64.2664 68.0168 65.0581C68.0168 65.8498 67.8252 66.6143 67.4146 67.3514C67.0041 68.0885 66.4567 68.6618 65.745 69.0714C65.0334 69.4809 64.267 69.672 63.4732 69.672C62.6795 69.672 61.9405 69.4809 61.2015 69.0714C60.4898 68.6618 59.915 68.0885 59.5318 67.3514C59.1213 66.6143 58.9297 65.8498 58.9297 65.0581C58.9297 64.2664 59.1213 63.4747 59.5318 62.7375C59.9424 62.0004 60.5172 61.4271 61.2288 61.0176C61.9405 60.6081 62.7069 60.417 63.4732 60.417Z" fill="#BDBDBD"/>
<path d="M71 75.1049H0V88.1001H71V75.1049Z" fill="#BDBDBD"/>
</g>
<defs>
<clipPath id="clip0_442_497">
<rect width="71" height="132" fill="white"/>
</clipPath>
</defs>
</svg>
