<svg width="574" height="107" viewBox="0 0 574 107" fill="none" xmlns="http://www.w3.org/2000/svg">
<path d="M113.336 7.16016V17.821H137.796V84.8892H150.388V17.821H174.848V7.16016H113.336Z" fill="#212121"/>
<path d="M233.877 31.7589C230.08 28.0135 224.593 26.1542 217.402 26.1542C212.839 26.1542 208.608 26.9301 204.695 28.4817C200.768 30.0333 197.374 32.2137 194.501 35.036V7.1333H182.747V84.8891H194.501V52.5722C194.501 50.1378 194.963 47.8906 195.873 45.8574C196.797 43.8242 198.082 42.0987 199.714 40.6942C201.345 39.2897 203.323 38.1928 205.648 37.417C207.973 36.6412 210.558 36.2533 213.446 36.2533C218.239 36.2533 221.806 37.4036 224.174 39.691C226.528 41.9917 227.712 45.5096 227.712 50.2448V84.8891H239.581V48.0243C239.581 40.9216 237.675 35.4908 233.877 31.7589Z" fill="#212121"/>
<path d="M294.48 27.144L277.456 73.3454H276.618L256.36 27.144H243.292L271.103 87.3369C269.428 90.3733 267.507 92.7543 265.341 94.5066C263.19 96.2321 260.591 97.1149 257.558 97.1149C256.36 97.1149 255.075 96.9544 253.717 96.6601C252.36 96.3658 250.959 95.8843 249.53 95.2155V104.886C251.118 105.702 252.894 106.251 254.858 106.545C256.822 106.839 258.439 107 259.71 107C263.233 107 266.251 106.451 268.763 105.381C271.276 104.311 273.456 102.907 275.304 101.168C277.138 99.429 278.727 97.4092 280.098 95.1085C281.456 92.8212 282.654 90.4134 283.694 87.8987L306.826 27.144H294.48Z" fill="#212121"/>
<path d="M343.733 74.7903C342.693 74.9374 341.653 75.0712 340.614 75.1782C339.574 75.2852 338.52 75.3654 337.437 75.4056C336.368 75.4323 335.43 75.4591 334.621 75.4591C331.502 75.4591 329.105 74.8304 327.43 73.573C325.755 72.3023 324.918 70.015 324.918 66.6843V36.5879H345.176V27.1443H325.033V12.377L313.164 13.8216V68.7977C313.164 71.6736 313.626 74.175 314.55 76.2884C315.46 78.4018 316.745 80.1407 318.377 81.5051C320.023 82.8829 321.972 83.8593 324.254 84.4479C326.535 85.0364 329.076 85.3441 331.863 85.3441C334.101 85.3441 336.628 85.1702 339.415 84.8358C342.216 84.5014 344.455 84.0065 346.13 83.3377V74.2285C345.581 74.4559 344.772 74.6431 343.733 74.7903Z" fill="#212121"/>
<path d="M406.675 79.7257C406.198 77.8397 405.953 76.0072 405.953 74.2281V45.8037C405.953 42.5399 405.332 39.6774 404.09 37.2028C402.848 34.7148 401.13 32.6683 398.935 31.0364C396.74 29.4045 394.098 28.1605 391.022 27.3178C387.946 26.4617 384.698 26.0337 381.261 26.0337H380.654C375.947 26.0337 371.37 26.7025 366.937 28.0401C362.49 29.3644 358.273 31.2237 354.288 33.5912L359.674 41.9112C362.562 39.9984 365.825 38.5137 369.507 37.4703C373.189 36.4404 376.698 35.9187 380.062 35.9187H380.539C384.856 35.9187 388.264 36.8283 390.791 38.6341C393.304 40.4532 394.56 42.9144 394.56 46.0311V49.2414H389.174C376.539 49.2414 367.052 50.8332 360.699 54.0167C354.346 57.2002 351.169 61.9086 351.169 68.1286V68.677C351.169 71.1917 351.732 73.5058 352.844 75.6192C353.97 77.7327 355.486 79.5518 357.407 81.0634C359.313 82.5749 361.609 83.7653 364.294 84.6214C366.966 85.4641 369.868 85.8922 372.987 85.8922C377.146 85.8922 381.073 85.21 384.799 83.8322C388.51 82.4679 391.888 80.4882 394.921 77.8932C395.08 79.2308 395.282 80.5283 395.527 81.7857C395.758 83.043 396.076 84.0864 396.48 84.8889H408.104C407.628 83.3373 407.151 81.6118 406.675 79.7257ZM394.56 68.1286C392.249 70.563 389.347 72.5293 385.867 74.0141C382.402 75.4989 378.619 76.2345 374.547 76.2345C372.872 76.2345 371.341 76.0339 369.984 75.6192C368.626 75.218 367.413 74.6562 366.33 73.9606C365.247 73.2517 364.439 72.3956 363.876 71.4057C363.313 70.4025 363.038 69.3057 363.038 68.1286V67.7942C363.038 64.3164 365.247 61.7348 369.695 60.0761C374.128 58.4041 381.102 57.5748 390.603 57.5748H394.56V68.1286Z" fill="#212121"/>
<path d="M467.798 7.16016V34.7017C465.083 32.1068 461.863 30.0468 458.152 28.5353C454.427 27.0238 450.34 26.2614 445.864 26.2614H445.503C441.099 26.2614 437.07 26.9569 433.388 28.3748C429.721 29.7793 426.558 31.7724 423.93 34.3673C421.288 36.9623 419.209 40.0255 417.693 43.5835C416.176 47.1416 415.411 51.101 415.411 55.4616V56.5718C415.411 60.8656 416.176 64.8115 417.693 68.3964C419.209 71.9946 421.288 75.0845 423.93 77.6794C426.558 80.2744 429.721 82.2675 433.388 83.672C437.07 85.0765 441.099 85.7854 445.503 85.7854H445.864C450.499 85.7854 454.716 84.9828 458.513 83.3911C462.311 81.7993 465.603 79.5655 468.404 76.6762V76.9036C468.563 78.0807 468.794 79.4719 469.112 81.0636C469.444 82.6554 469.834 83.9261 470.325 84.8892H479.551V7.16016H467.798ZM467.798 56.4648C467.798 59.4209 467.321 62.1096 466.368 64.5173C465.401 66.925 464.043 68.9983 462.282 70.7372C460.52 72.4761 458.455 73.8137 456.058 74.7367C453.647 75.6596 450.976 76.1144 448.016 76.1144H447.294C444.42 76.1144 441.763 75.6596 439.323 74.7367C436.883 73.8137 434.832 72.4761 433.157 70.7372C431.482 68.9983 430.183 66.925 429.259 64.5173C428.335 62.1096 427.887 59.4209 427.887 56.4648V55.582C427.887 52.5456 428.335 49.8436 429.259 47.476C430.183 45.095 431.482 43.0485 433.157 41.3096C434.832 39.5707 436.883 38.2331 439.323 37.3101C441.763 36.3871 444.42 35.919 447.294 35.919H448.016C450.903 35.919 453.546 36.3871 455.986 37.3101C458.426 38.2331 460.52 39.5707 462.282 41.3096C464.043 43.0485 465.401 45.095 466.368 47.476C467.321 49.8436 467.798 52.5456 467.798 55.582V56.4648Z" fill="#212121"/>
<path d="M551.229 53.134C551.229 49.2148 550.507 45.6032 549.078 42.2993C547.634 39.0087 545.641 36.1596 543.085 33.7519C540.515 31.3442 537.439 29.4983 533.844 28.2008C530.248 26.9033 526.292 26.2612 521.975 26.2612H521.744C517.267 26.2612 513.109 27.0237 509.268 28.5352C505.441 30.0467 502.12 32.1334 499.319 34.7551C496.518 37.3768 494.352 40.4935 492.792 44.0783C491.233 47.6765 490.453 51.6225 490.453 55.9029V57.3475C490.453 61.4941 491.233 65.3063 492.792 68.7975C494.352 72.2753 496.46 75.2716 499.146 77.7863C501.817 80.3011 505.109 82.2674 509.037 83.6719C512.95 85.0764 517.181 85.7853 521.744 85.7853H522.336C524.978 85.7853 527.577 85.5044 530.133 84.956C532.689 84.3942 535.172 83.6317 537.569 82.6686C539.966 81.7056 542.161 80.4883 544.154 79.0036C546.161 77.5322 547.879 75.9003 549.309 74.1213L541.641 67.7943C539.88 70.0816 537.338 72.0078 534.032 73.5728C530.711 75.1245 526.971 75.9003 522.812 75.9003H522.466C519.736 75.9003 517.224 75.5124 514.914 74.7366C512.589 73.9607 510.553 72.8639 508.791 71.4594C507.03 70.0549 505.615 68.3695 504.532 66.4032C503.463 64.4369 502.756 62.3101 502.438 60.0227H551.229V53.134ZM502.683 51.462C503.16 49.0944 503.94 46.9676 505.023 45.0815C506.091 43.1955 507.434 41.5502 509.037 40.1457C510.625 38.7278 512.502 37.6577 514.668 36.9221C516.82 36.1864 519.101 35.8118 521.498 35.8118H521.614C524.011 35.8118 526.335 36.1997 528.573 36.9756C530.812 37.7514 532.732 38.8215 534.32 40.1992C535.923 41.5636 537.208 43.1955 538.161 45.0815C539.129 46.9676 539.677 49.0944 539.836 51.462H502.683Z" fill="#212121"/>
<path d="M562.246 7.16016V84.8892H574V7.16016H562.246Z" fill="#212121"/>
<path d="M60.9926 85.3439H21.2261C9.50121 85.3439 0 76.5424 0 65.6809V7.1333L60.9926 85.3439Z" fill="#212121"/>
<path d="M87.5756 63.2732H65.021C53.2961 63.2732 43.7949 54.4717 43.7949 43.6102V7.1333L87.5756 63.2732Z" fill="#212121"/>
</svg>
